<?xml version="1.0" standalone="no"?>
<!DOCTYPE svg PUBLIC "-//W3C//DTD SVG 20010904//EN"
 "http://www.w3.org/TR/2001/REC-SVG-20010904/DTD/svg10.dtd">
<svg version="1.0" xmlns="http://www.w3.org/2000/svg"
 width="908.000000pt" height="908.000000pt" viewBox="0 0 908.000000 908.000000"
 preserveAspectRatio="xMidYMid meet">
<metadata>
Created by potrace 1.11, written by Peter Selinger 2001-2013
</metadata>
<g transform="translate(0.000000,908.000000) scale(0.100000,-0.100000)"
fill="#000000" stroke="none">
<path d="M1998 8306 c-10 -7 -36 -53 -58 -102 -23 -49 -45 -98 -50 -109 -62
-132 -173 -385 -177 -402 -3 -12 -11 -28 -19 -34 -8 -6 -14 -17 -14 -23 0 -7
-8 -30 -19 -52 -10 -21 -25 -55 -34 -74 -9 -19 -32 -70 -51 -113 -20 -42 -36
-79 -36 -81 0 -3 -15 -37 -34 -78 -18 -40 -44 -95 -56 -123 -12 -27 -45 -99
-73 -160 l-51 -110 -1 -785 c-2 -767 -2 -786 -22 -830 -41 -91 -77 -168 -129
-279 -30 -63 -54 -120 -54 -127 0 -8 -3 -14 -8 -14 -4 0 -12 -12 -19 -27 -30
-71 -64 -145 -104 -228 -23 -49 -44 -92 -44 -95 -5 -16 -115 -253 -126 -270
-5 -8 -12 -22 -15 -30 -3 -8 -12 -26 -19 -40 -7 -14 -13 -27 -13 -30 1 -3 -8
-23 -19 -45 -11 -22 -35 -74 -54 -115 l-33 -75 -1 -780 -1 -780 -46 -100 c-25
-55 -65 -140 -88 -190 -23 -49 -56 -119 -72 -155 -17 -36 -45 -96 -63 -135
-18 -38 -43 -92 -56 -120 -12 -27 -24 -52 -24 -55 -1 -3 -17 -39 -37 -80 -19
-41 -45 -96 -57 -122 -11 -26 -50 -108 -86 -183 -36 -75 -65 -139 -65 -141 0
-2 -16 -36 -35 -75 -19 -40 -35 -81 -35 -91 0 -11 12 -32 28 -47 l27 -28 885
1 c877 1 886 1 907 21 12 12 30 39 39 60 9 22 31 70 50 107 18 38 31 68 28 68
-2 0 2 10 10 23 8 12 71 146 141 297 168 365 179 386 241 519 30 62 54 115 54
117 0 2 28 61 62 131 l62 128 1 790 2 790 43 90 c50 107 91 194 161 347 54
119 79 157 79 124 0 -10 9 -55 19 -100 24 -102 60 -265 65 -291 3 -11 9 -40
15 -65 7 -25 13 -57 16 -72 2 -15 9 -46 16 -70 6 -24 13 -54 16 -68 2 -14 20
-95 39 -180 20 -85 38 -168 41 -185 2 -16 17 -84 33 -150 16 -66 31 -131 34
-145 2 -14 10 -47 16 -75 5 -27 13 -61 16 -75 2 -14 7 -33 10 -42 3 -10 7 -30
10 -45 4 -28 44 -206 60 -268 1 -5 5 -26 9 -45 3 -19 10 -51 16 -71 5 -21 13
-57 18 -80 5 -24 28 -129 51 -234 23 -104 51 -230 61 -280 11 -49 22 -97 24
-105 2 -8 11 -49 20 -90 10 -41 24 -104 32 -140 8 -36 17 -76 19 -90 12 -61
45 -204 49 -209 2 -4 6 -25 9 -46 2 -22 11 -65 19 -95 12 -45 32 -136 41 -185
8 -40 31 -87 49 -97 17 -10 225 -13 905 -14 l884 -1 26 27 c15 15 42 63 61
106 19 44 64 140 99 214 35 74 64 140 65 145 1 6 4 12 7 15 3 3 21 39 39 80
40 89 89 193 144 310 22 47 64 139 94 204 30 65 59 126 63 135 5 9 19 39 31
66 12 28 35 77 52 110 l30 60 2 790 1 790 38 80 c42 89 86 183 107 233 8 17
17 32 21 32 5 0 8 6 8 13 0 7 12 38 26 68 15 30 37 78 50 108 14 30 26 52 28
50 2 -2 6 -20 9 -39 3 -19 13 -63 21 -97 9 -34 18 -77 21 -95 3 -18 11 -51 17
-73 6 -22 12 -53 15 -70 2 -16 8 -46 13 -65 7 -28 53 -237 75 -343 2 -10 6
-26 9 -35 3 -9 8 -33 11 -52 3 -19 11 -53 16 -75 12 -45 17 -66 24 -110 3 -16
11 -57 19 -90 8 -33 17 -71 20 -85 6 -33 21 -100 39 -185 9 -39 18 -82 21 -95
3 -14 19 -88 36 -165 17 -77 33 -151 36 -165 3 -14 7 -33 10 -42 3 -10 8 -30
10 -45 3 -16 14 -68 25 -118 12 -49 22 -99 25 -110 2 -11 7 -33 11 -50 3 -16
8 -37 9 -45 3 -18 37 -174 111 -505 8 -38 17 -79 19 -90 2 -11 15 -70 28 -132
14 -61 27 -122 30 -135 15 -71 39 -181 51 -233 8 -33 23 -104 35 -157 17 -76
27 -102 45 -116 23 -18 59 -19 908 -18 855 1 886 2 906 20 26 23 27 64 5 161
-8 39 -17 79 -19 90 -1 11 -8 38 -13 60 -6 22 -13 51 -16 65 -3 20 -66 304
-81 370 -2 8 -8 35 -14 60 -5 25 -13 61 -16 80 -3 19 -10 51 -15 70 -5 19 -11
46 -14 60 -6 29 -14 66 -21 97 -7 32 -22 104 -29 138 -3 11 -11 49 -20 85 -8
36 -17 76 -20 90 -3 14 -17 79 -31 145 -15 66 -29 131 -31 145 -3 14 -10 43
-16 65 -5 22 -12 49 -13 60 -2 11 -11 52 -19 90 -9 39 -19 84 -22 100 -2 17
-7 37 -9 45 -4 12 -113 504 -130 585 -3 11 -7 31 -10 45 -3 14 -7 34 -9 45 -4
19 -43 193 -73 325 -8 36 -16 76 -19 90 -3 14 -21 95 -40 180 -19 85 -36 164
-38 175 -3 11 -12 54 -21 95 -10 41 -21 93 -25 115 -5 22 -18 83 -30 135 -12
52 -24 106 -26 120 -3 13 -14 60 -24 105 -10 45 -21 92 -24 105 -2 14 -10 49
-16 78 -7 30 -13 61 -15 70 -2 9 -4 17 -5 17 -1 0 -3 12 -5 27 -2 16 -6 37
-10 47 -3 11 -8 28 -10 38 -11 54 -70 328 -90 418 -14 62 -51 230 -76 345 -11
52 -22 102 -24 110 -2 8 -26 121 -54 250 -29 129 -59 264 -67 299 -17 68 -21
87 -30 136 -3 17 -11 57 -19 90 -8 33 -23 103 -35 155 -11 52 -25 111 -30 130
-5 19 -12 51 -15 70 -7 40 -72 342 -82 380 -4 14 -7 30 -8 35 -1 6 -5 26 -10
45 -4 19 -9 44 -11 55 -1 11 -3 20 -4 20 -1 0 -3 9 -5 19 -2 11 -11 49 -19 85
-16 68 -45 201 -52 236 -3 17 -11 50 -20 88 -1 4 -2 14 -3 22 0 9 -12 27 -26
40 l-24 25 -889 0 -888 0 -26 -27 c-14 -16 -29 -38 -32 -50 -4 -12 -22 -53
-41 -92 -19 -40 -35 -73 -35 -76 0 -2 -16 -39 -36 -82 -32 -69 -54 -118 -59
-133 -3 -10 -38 -86 -65 -145 -34 -73 -202 -446 -223 -495 -14 -34 -34 -78
-117 -257 -22 -46 -37 -83 -35 -83 2 0 -2 -11 -9 -24 -9 -18 -12 -200 -11
-792 0 -864 8 -775 -83 -964 -27 -58 -59 -125 -70 -150 -125 -274 -148 -319
-149 -288 0 7 -17 87 -37 178 -21 91 -40 176 -42 190 -3 14 -10 43 -16 65 -5
22 -12 51 -15 65 -2 14 -9 45 -14 70 -6 25 -12 54 -15 65 -6 31 -43 200 -64
298 -11 48 -29 126 -40 175 -10 48 -30 137 -44 197 -13 61 -27 124 -30 140 -4
17 -9 41 -12 55 -9 40 -25 113 -30 139 -3 12 -12 53 -20 90 -9 36 -17 73 -19
81 -2 8 -8 35 -14 60 -5 25 -12 56 -15 70 -3 14 -7 35 -10 48 -4 12 -8 32 -11
45 -11 52 -16 73 -19 92 -3 11 -23 103 -46 205 -53 239 -60 269 -65 305 -3 17
-8 37 -11 45 -3 8 -8 26 -10 40 -3 14 -9 41 -14 60 -5 19 -11 46 -14 60 -8 43
-46 221 -66 305 -11 44 -21 91 -24 105 -5 27 -35 164 -42 193 -5 22 -11 48
-25 116 -6 32 -21 64 -35 77 l-23 24 -888 0 c-715 -1 -891 -3 -905 -14z m256
-147 c6 -5 -42 -117 -140 -327 -19 -41 -34 -75 -34 -77 0 -3 -77 -174 -185
-410 -31 -69 -65 -144 -80 -180 -7 -16 -24 -55 -38 -85 -14 -30 -44 -98 -67
-150 l-41 -94 0 -774 0 -775 -24 -56 c-13 -31 -48 -109 -79 -175 -31 -65 -56
-119 -56 -121 0 -2 -28 -63 -63 -137 -35 -73 -119 -254 -188 -403 -68 -148
-127 -273 -132 -276 -5 -3 -9 -10 -9 -15 -1 -13 -11 -39 -63 -149 l-48 -100 0
-780 c0 -719 -1 -783 -17 -820 -17 -39 -57 -126 -125 -270 -18 -38 -60 -128
-93 -200 -33 -71 -79 -170 -102 -220 -23 -49 -51 -110 -62 -135 -11 -25 -47
-101 -79 -169 -33 -67 -59 -125 -59 -127 0 -2 -18 -39 -39 -83 -21 -44 -36
-82 -33 -85 3 -3 0 -6 -6 -6 -7 0 -12 -7 -12 -15 0 -12 -16 -15 -85 -15 -47 0
-85 4 -85 9 0 4 25 62 56 127 56 121 69 149 122 264 16 36 44 97 63 135 18 39
34 72 34 75 1 3 17 39 37 80 50 105 91 194 93 200 1 3 15 34 32 70 72 153 96
205 98 210 1 3 17 37 36 75 l34 70 1 777 c1 427 4 788 8 802 3 13 37 90 76
171 38 81 70 148 70 151 0 2 27 60 60 130 33 69 60 127 60 129 0 2 24 54 54
116 88 187 208 449 220 479 3 8 10 22 16 30 5 8 28 56 52 105 l43 90 1 770 c1
424 4 784 7 800 2 17 47 125 99 240 53 116 166 368 253 560 87 193 170 377
185 410 15 33 37 83 49 110 l22 51 79 -1 c43 0 81 -3 84 -6z m349 -6 c-1 -6
-13 -35 -27 -64 -13 -30 -47 -106 -76 -169 -29 -63 -63 -140 -77 -170 -14 -30
-42 -93 -63 -140 -21 -47 -52 -116 -70 -155 -18 -38 -36 -79 -40 -90 -7 -17
-41 -94 -182 -405 -12 -25 -20 -47 -20 -50 1 -3 -7 -16 -16 -30 -16 -23 -17
-89 -18 -815 l-1 -790 -38 -80 c-20 -44 -50 -107 -65 -140 -15 -33 -53 -113
-84 -179 -31 -65 -56 -120 -56 -121 0 -2 -24 -55 -54 -117 -50 -107 -76 -164
-90 -198 -3 -8 -10 -22 -15 -30 -5 -8 -22 -44 -39 -80 -101 -220 -131 -285
-183 -395 l-38 -80 -1 -783 0 -782 -30 -65 c-69 -149 -133 -288 -190 -410 -23
-49 -51 -110 -62 -135 -20 -44 -77 -166 -123 -265 -13 -27 -69 -147 -124 -265
l-99 -215 -86 -3 c-47 -1 -86 -1 -86 2 0 2 22 51 48 108 73 154 102 218 127
273 25 54 72 157 128 275 67 142 289 625 299 650 7 16 10 299 10 800 0 752 1
776 20 820 23 53 187 404 264 569 30 62 54 115 54 117 0 2 20 45 44 96 24 51
55 118 69 148 14 30 46 100 72 155 26 55 68 145 92 200 l46 100 1 785 1 785
94 205 c51 113 101 223 111 245 18 40 317 704 372 825 16 35 33 67 38 70 18
11 165 4 163 -7z m339 -4 c-3 -12 -69 -160 -157 -354 -16 -33 -42 -94 -60
-135 -33 -76 -70 -157 -131 -288 -19 -40 -34 -74 -34 -76 0 -2 -20 -47 -45
-100 -25 -53 -45 -98 -45 -100 0 -4 -60 -135 -98 -216 -15 -32 -16 -111 -17
-820 l-1 -785 -52 -113 c-29 -62 -69 -147 -88 -189 -20 -42 -60 -128 -90 -191
-30 -63 -54 -116 -54 -118 0 -1 -21 -47 -47 -101 -26 -54 -47 -100 -48 -103
-2 -8 -38 -86 -85 -185 -23 -49 -54 -115 -67 -145 -14 -30 -48 -102 -76 -160
l-51 -105 -1 -785 c-1 -779 -1 -785 -23 -833 -11 -26 -21 -50 -21 -52 -1 -3
-12 -26 -25 -53 -14 -26 -40 -81 -59 -122 -19 -41 -47 -102 -63 -135 -16 -33
-29 -62 -29 -65 -1 -3 -13 -30 -27 -60 -14 -30 -37 -81 -52 -112 -14 -31 -31
-67 -36 -80 -5 -13 -14 -30 -19 -38 -9 -15 -149 -319 -198 -430 -14 -30 -29
-62 -34 -70 -4 -8 -17 -34 -28 -58 l-20 -42 -86 0 c-47 0 -84 3 -82 8 3 4 15
30 27 57 12 28 37 82 55 120 18 39 35 77 39 85 3 8 10 22 15 30 5 8 19 38 31
65 37 83 161 353 245 530 20 44 50 107 65 140 70 153 84 183 108 230 l25 50 1
786 1 787 30 63 c16 35 53 115 82 176 29 62 53 115 53 117 0 2 24 55 54 117
65 138 120 255 153 329 14 30 57 122 95 204 38 82 85 183 105 225 19 42 47
101 61 131 l26 55 1 785 1 785 32 68 c18 38 32 70 32 72 0 2 20 48 45 101 25
53 45 97 45 99 0 1 14 33 32 71 17 38 32 71 33 74 1 3 16 36 33 74 18 38 32
70 32 73 0 2 15 36 34 76 29 62 88 191 193 427 73 164 99 213 116 219 11 4 50
7 86 6 51 -2 65 -5 63 -16z m343 10 c3 -3 -8 -35 -24 -70 -98 -217 -291 -646
-316 -704 -8 -16 -31 -68 -53 -115 -21 -47 -47 -106 -58 -132 -10 -27 -22 -48
-26 -48 -5 0 -8 -8 -8 -17 0 -10 -9 -33 -20 -50 -11 -18 -17 -33 -15 -33 3 0
-4 -19 -16 -42 -12 -24 -21 -44 -20 -46 1 -1 -6 -17 -16 -35 -15 -29 -16 -100
-17 -817 l-1 -785 -52 -108 c-29 -60 -53 -110 -53 -112 0 -2 -27 -60 -60 -129
-33 -69 -60 -128 -60 -130 0 -2 -28 -62 -61 -132 -67 -142 -111 -236 -114
-244 -1 -3 -16 -36 -34 -75 -18 -38 -76 -162 -129 -275 l-95 -205 -2 -785 c-1
-553 -4 -792 -12 -810 -17 -38 -75 -164 -120 -260 -22 -47 -54 -114 -71 -150
-16 -36 -51 -109 -76 -163 -25 -55 -46 -100 -46 -102 0 -2 -26 -59 -59 -127
-32 -68 -69 -145 -81 -173 -12 -27 -41 -90 -65 -140 -23 -49 -55 -118 -70
-152 l-28 -63 -83 0 c-46 0 -84 4 -84 8 0 5 9 26 19 48 10 21 49 104 86 184
37 80 83 179 102 220 20 41 61 131 93 200 32 69 81 174 109 234 28 59 51 109
51 111 0 1 27 60 60 130 33 69 67 142 74 160 12 28 14 169 15 814 l0 780 24
53 c63 136 106 228 134 288 54 115 122 260 200 430 72 156 87 188 139 298 30
62 54 120 54 128 0 8 4 14 9 14 5 0 11 8 14 18 3 9 23 53 44 97 l38 80 5 800
5 800 63 133 c34 73 62 135 62 136 0 2 23 52 50 110 28 58 50 108 50 111 0 2
13 33 29 67 52 115 219 485 234 519 8 19 27 61 43 94 15 33 28 62 29 65 7 25
38 87 49 95 14 11 151 14 161 4z m345 -6 c0 -8 -4 -21 -9 -31 -5 -9 -23 -46
-39 -82 -16 -36 -39 -87 -52 -115 -12 -27 -23 -52 -23 -55 0 -3 -10 -25 -23
-50 -22 -45 -60 -127 -116 -255 -31 -69 -52 -116 -122 -268 -20 -43 -36 -80
-36 -82 0 -2 -17 -41 -38 -87 -116 -250 -139 -314 -132 -353 2 -11 0 -254 -3
-358 -1 -37 0 -67 3 -67 3 0 4 -73 3 -163 -2 -182 -3 -297 -3 -661 l-1 -250
-38 -85 c-22 -47 -57 -124 -79 -171 -22 -47 -54 -116 -72 -155 -18 -38 -49
-106 -70 -150 -36 -77 -52 -113 -125 -270 -18 -38 -48 -104 -68 -145 -19 -41
-44 -96 -56 -122 -11 -25 -49 -104 -83 -175 l-63 -128 -5 -800 -5 -800 -36
-75 c-56 -114 -196 -418 -230 -497 -8 -18 -17 -33 -21 -33 -5 0 -8 -6 -8 -14
0 -8 -22 -61 -49 -118 -27 -57 -62 -132 -79 -168 -16 -36 -47 -101 -68 -145
-20 -44 -38 -82 -38 -85 -1 -3 -18 -41 -40 -84 -21 -44 -42 -90 -47 -103 -8
-22 -14 -23 -94 -23 -47 0 -85 1 -85 3 0 10 70 161 79 170 6 6 11 16 11 23 0
7 13 38 29 70 31 63 84 176 85 184 1 3 13 30 28 60 36 76 105 224 135 290 14
30 41 89 61 130 20 41 37 77 37 80 1 3 18 41 39 85 21 44 53 115 73 158 l34
78 0 778 0 778 65 139 c36 76 66 144 67 149 1 6 4 12 7 15 3 3 34 68 70 145
35 77 90 196 122 263 32 68 58 125 58 127 0 1 22 49 49 106 26 57 60 129 74
159 14 30 49 105 77 165 29 61 57 121 62 135 6 16 10 320 10 802 l-1 778 39
87 c21 49 59 132 84 187 25 54 46 105 46 112 0 8 4 14 8 14 4 0 14 17 21 38 8
20 29 69 46 107 18 39 44 95 58 125 13 30 34 76 46 103 51 114 61 137 61 147
0 5 5 10 10 10 6 0 10 6 10 14 0 8 23 62 50 120 28 58 50 108 50 110 0 3 20
47 43 98 l44 94 81 0 c60 -1 82 -4 82 -13z m2236 4 c4 -3 2 -12 -3 -19 -5 -7
-16 -29 -23 -48 -8 -19 -33 -77 -57 -128 -24 -52 -43 -95 -43 -97 0 -2 -15
-36 -34 -77 -39 -83 -131 -286 -199 -438 -13 -30 -37 -82 -51 -115 -15 -33
-34 -73 -41 -90 -7 -16 -27 -59 -43 -95 -16 -36 -44 -99 -62 -140 l-34 -75 -1
-785 -1 -785 -43 -90 c-47 -97 -111 -234 -142 -303 -11 -24 -42 -91 -70 -148
-27 -58 -49 -106 -49 -108 0 -2 -26 -59 -59 -127 -32 -68 -60 -128 -61 -134
-2 -5 -20 -45 -42 -87 -21 -42 -38 -79 -38 -81 0 -3 -27 -62 -60 -132 -33 -69
-68 -143 -76 -163 -15 -33 -17 -125 -19 -822 l-2 -785 -55 -120 c-31 -66 -74
-160 -97 -208 -22 -49 -41 -92 -41 -98 0 -5 -4 -9 -10 -9 -5 0 -10 -6 -10 -13
0 -12 -81 -191 -211 -465 -21 -45 -39 -84 -39 -86 0 -4 -105 -230 -143 -306
l-22 -45 -82 -3 c-53 -2 -83 1 -83 8 0 5 31 76 69 158 38 81 78 167 89 192 11
25 48 103 81 173 34 71 61 130 61 132 0 2 26 59 59 126 32 68 70 151 85 184
41 90 97 211 133 284 l31 66 0 782 1 783 47 102 c25 57 64 139 84 183 21 44
48 103 60 130 44 97 102 221 126 267 13 27 24 49 23 50 0 2 25 56 55 121 31
65 56 120 56 122 0 2 32 70 71 152 39 81 72 153 73 158 1 6 15 35 31 65 l30
55 1 785 c1 432 5 794 9 805 4 11 21 49 37 85 17 36 36 79 43 95 7 17 27 60
44 98 17 37 31 69 31 72 0 2 16 39 36 82 20 43 44 96 54 118 10 22 35 75 54
118 20 43 39 89 42 102 3 13 12 29 20 36 8 6 14 17 14 24 0 7 18 52 41 101 65
141 92 202 140 311 24 56 51 104 59 105 27 6 149 2 156 -5z m346 4 c4 -1 0
-16 -10 -33 -10 -18 -25 -51 -34 -73 -9 -22 -34 -80 -57 -128 -23 -49 -41 -90
-41 -92 0 -2 -22 -52 -50 -110 -27 -58 -50 -108 -50 -110 0 -2 -13 -32 -29
-67 -16 -35 -39 -85 -51 -113 -13 -27 -32 -70 -43 -95 -11 -25 -21 -47 -22
-50 -1 -3 -18 -40 -38 -84 -20 -43 -37 -80 -37 -82 0 -3 -48 -108 -92 -199
l-33 -70 -5 -800 -5 -800 -49 -100 c-58 -120 -95 -199 -171 -365 -32 -69 -82
-176 -111 -239 -30 -62 -54 -115 -54 -116 0 -2 -25 -56 -55 -120 -31 -65 -65
-139 -77 -164 -11 -25 -41 -89 -65 -141 -80 -169 -74 -89 -74 -957 0 -667 -2
-783 -15 -794 -8 -6 -14 -18 -14 -26 0 -8 -7 -27 -15 -41 -19 -36 -125 -260
-125 -266 0 -2 -24 -55 -54 -118 -29 -62 -63 -135 -76 -163 -12 -27 -42 -93
-67 -145 -24 -52 -55 -117 -68 -145 -31 -67 -82 -178 -141 -305 -27 -58 -53
-108 -59 -112 -11 -9 -165 -11 -165 -3 0 3 23 53 50 111 28 58 50 107 50 109
0 2 27 60 60 130 33 70 60 128 60 130 0 1 29 64 65 140 36 75 65 138 65 139 0
2 24 55 54 117 29 63 88 189 130 281 l76 167 0 779 c0 742 1 780 19 818 10 21
42 89 70 151 28 62 71 155 96 207 45 95 83 177 135 291 69 150 86 188 141 304
33 68 59 125 59 126 0 2 29 63 64 137 35 73 67 144 71 157 4 13 7 373 7 800 0
709 1 779 17 811 9 19 27 60 40 90 13 30 36 81 52 113 15 31 29 60 29 62 1 7
34 84 63 146 14 30 37 81 52 114 15 33 33 74 40 90 8 17 34 74 59 129 25 54
46 100 46 102 0 2 12 29 27 61 14 32 61 136 104 232 43 96 82 177 88 180 8 5
131 7 163 2z m344 0 c2 -1 -121 -275 -183 -411 -17 -36 -55 -121 -86 -190 -30
-69 -80 -179 -110 -245 -49 -109 -71 -159 -112 -250 -7 -16 -27 -61 -44 -98
-18 -38 -37 -80 -44 -95 -8 -20 -11 -243 -12 -812 l-2 -785 -26 -53 c-14 -28
-23 -52 -19 -52 4 0 2 -4 -3 -8 -6 -4 -26 -41 -45 -82 -44 -99 -103 -226 -150
-325 -21 -44 -78 -168 -128 -275 -49 -107 -108 -233 -130 -280 -21 -47 -53
-114 -69 -150 -17 -36 -43 -92 -59 -125 l-29 -60 -1 -778 c-1 -427 -4 -787 -8
-800 -3 -13 -33 -82 -66 -153 -34 -71 -70 -147 -80 -169 -10 -22 -41 -89 -69
-149 -28 -59 -51 -110 -51 -111 0 -2 -29 -64 -65 -140 -36 -75 -65 -138 -65
-140 0 -1 -29 -64 -65 -140 -36 -75 -65 -138 -65 -140 0 -1 -23 -50 -50 -109
l-51 -106 -78 0 c-43 0 -80 3 -83 6 -3 3 0 17 7 32 17 35 76 163 108 232 14
30 43 93 65 140 45 95 75 161 202 435 114 246 166 358 198 423 l26 53 1 787 1
787 33 70 c19 39 46 97 61 130 53 117 83 181 131 284 27 57 49 105 49 107 0 1
29 63 64 136 83 174 130 274 176 378 21 47 61 135 91 195 l53 110 1 790 2 790
32 70 c18 39 48 103 67 143 19 40 34 74 34 76 0 2 21 48 46 103 25 54 72 157
104 228 61 138 77 174 134 298 20 44 36 80 36 82 0 2 15 36 34 77 18 40 50
111 71 158 20 47 45 92 55 100 13 12 37 15 91 14 41 -1 75 -2 75 -3z m344 -2
c0 -3 -79 -180 -176 -395 -97 -214 -191 -423 -209 -464 -17 -41 -49 -110 -69
-153 -20 -42 -36 -79 -36 -82 0 -2 -17 -41 -38 -87 -21 -46 -44 -98 -52 -117
-11 -27 -14 -182 -15 -815 l-1 -781 -43 -90 c-23 -49 -52 -110 -63 -135 -11
-25 -45 -96 -74 -159 -30 -62 -54 -114 -54 -116 0 -2 -25 -56 -56 -121 -56
-118 -86 -183 -145 -311 -17 -38 -44 -95 -59 -128 -76 -163 -105 -225 -132
-285 l-30 -65 -2 -785 -1 -785 -25 -50 c-13 -27 -25 -52 -25 -55 -2 -5 -32
-70 -116 -248 -27 -56 -49 -104 -49 -106 0 -2 -29 -65 -65 -141 -36 -75 -65
-138 -65 -140 0 -3 -44 -99 -129 -280 -26 -55 -58 -124 -72 -154 -13 -30 -37
-82 -54 -115 l-30 -61 -88 -3 -89 -3 16 28 c9 15 44 91 80 168 59 129 84 183
162 350 15 33 28 62 29 65 1 3 15 34 32 70 17 36 91 193 164 350 l134 285 1
786 2 785 22 50 c12 27 37 81 55 119 18 39 46 99 63 135 16 36 46 99 65 140
19 41 49 107 67 145 57 126 68 148 139 299 39 82 71 155 71 162 0 8 5 14 10
14 6 0 10 4 10 10 0 5 16 45 36 87 20 43 56 120 79 171 l43 94 0 773 c0 425 3
784 7 797 7 21 102 235 175 393 15 33 42 94 60 135 18 41 46 104 62 140 17 36
40 88 53 115 12 28 32 73 45 100 36 80 61 136 87 195 14 30 40 88 59 128 19
40 34 76 34 80 0 4 8 21 18 37 19 30 20 30 100 30 45 0 82 -2 82 -6z m340 -2
c0 -6 -38 -92 -192 -437 -11 -25 -33 -72 -48 -105 -15 -33 -44 -98 -65 -145
-21 -47 -57 -127 -81 -179 -24 -51 -44 -95 -44 -97 0 -2 -12 -29 -26 -61 -15
-32 -51 -112 -80 -177 l-54 -119 0 -786 c0 -664 -3 -790 -15 -811 -8 -14 -17
-32 -21 -40 -4 -8 -25 -53 -47 -100 -21 -47 -59 -128 -82 -180 -24 -52 -68
-148 -99 -213 -31 -65 -56 -120 -56 -122 0 -2 -29 -65 -65 -140 -36 -75 -65
-138 -65 -140 0 -2 -29 -65 -65 -140 -36 -75 -65 -138 -65 -140 0 -3 -17 -37
-37 -77 l-38 -73 -5 -800 -5 -800 -66 -140 c-79 -166 -142 -299 -176 -375 -14
-30 -47 -102 -74 -158 -27 -57 -49 -105 -49 -107 0 -1 -28 -63 -63 -136 -35
-74 -94 -200 -132 -282 l-68 -147 -83 0 c-46 0 -84 2 -84 5 0 3 14 35 30 70
17 35 30 69 30 75 0 5 5 10 10 10 6 0 10 5 10 12 0 6 11 34 24 62 26 56 83
179 124 266 14 30 47 101 73 158 27 57 49 105 49 106 0 2 24 55 54 117 29 63
64 137 76 164 13 28 45 97 72 155 28 58 52 119 55 135 3 17 6 377 6 800 l2
770 37 75 c20 41 42 90 50 108 7 17 16 32 19 32 4 0 10 11 13 25 4 14 29 74
57 133 28 59 63 132 76 162 29 64 69 149 126 270 22 47 52 112 67 145 15 33
42 92 60 130 37 80 84 183 94 205 3 8 10 22 15 30 43 74 42 49 42 869 l1 776
33 80 c18 44 51 119 74 167 23 48 41 89 41 92 0 3 20 48 45 100 25 53 45 98
45 100 0 2 15 37 34 78 19 40 67 145 106 233 40 88 85 188 101 223 16 35 29
65 29 67 0 2 16 38 35 79 19 42 35 78 35 80 0 3 9 20 20 38 l19 33 81 0 c44 0
80 -3 80 -8z m114 -187 c3 -14 15 -68 26 -120 12 -52 23 -105 26 -116 2 -12
18 -81 34 -154 16 -73 32 -142 34 -154 11 -50 47 -218 66 -301 11 -49 31 -139
45 -200 13 -60 33 -153 45 -205 12 -52 23 -106 26 -120 3 -14 10 -45 15 -70 6
-25 13 -54 15 -65 2 -11 6 -30 9 -42 3 -13 7 -35 10 -50 3 -16 10 -44 15 -63
5 -19 11 -46 14 -60 5 -30 51 -238 72 -330 8 -36 17 -76 20 -90 8 -40 45 -211
49 -229 7 -27 35 -155 39 -176 2 -11 10 -42 16 -70 6 -27 14 -61 16 -75 2 -14
11 -52 19 -85 8 -33 16 -71 19 -85 3 -14 7 -36 10 -50 3 -14 8 -36 11 -50 3
-14 8 -36 11 -50 11 -47 25 -115 30 -140 3 -14 9 -41 14 -60 5 -19 11 -46 14
-60 2 -14 16 -77 31 -140 14 -63 29 -126 31 -140 3 -14 10 -45 15 -70 6 -25
13 -56 15 -70 6 -30 34 -159 40 -182 18 -77 33 -141 39 -178 3 -19 11 -53 17
-75 5 -22 11 -49 13 -60 2 -11 12 -60 23 -110 12 -49 23 -101 26 -115 2 -14
10 -47 16 -75 6 -27 14 -61 16 -74 3 -12 11 -51 19 -85 8 -33 16 -73 19 -89 3
-15 7 -35 10 -45 3 -9 8 -30 11 -47 8 -39 11 -52 35 -160 11 -49 22 -99 24
-110 2 -11 13 -63 25 -115 12 -52 24 -106 27 -120 3 -13 12 -56 20 -95 9 -38
18 -81 20 -95 3 -14 9 -41 14 -60 13 -52 22 -92 25 -122 2 -14 5 -31 9 -36 3
-5 8 -22 10 -38 7 -38 12 -58 26 -119 7 -27 14 -63 16 -80 3 -16 7 -36 10 -44
4 -11 25 -112 39 -184 2 -9 6 -20 8 -25 3 -4 8 -24 11 -44 3 -21 11 -59 17
-85 6 -27 13 -57 15 -68 2 -11 6 -30 9 -42 3 -13 7 -33 10 -45 2 -13 18 -84
34 -159 17 -74 32 -149 35 -165 3 -16 10 -44 15 -62 5 -18 10 -35 10 -37 -1
-8 12 -67 18 -88 4 -16 -3 -18 -88 -15 l-94 3 -12 55 c-7 30 -24 109 -38 175
-15 66 -28 129 -31 140 -9 43 -14 66 -19 91 -3 14 -13 56 -21 93 -9 36 -18 75
-20 86 -10 48 -29 137 -73 333 -11 48 -31 141 -46 207 -14 66 -28 129 -31 140
-3 11 -6 31 -9 45 -2 14 -13 63 -24 110 -11 47 -22 97 -25 110 -3 14 -8 36
-11 50 -3 14 -8 39 -11 55 -2 17 -9 46 -14 65 -8 32 -34 150 -46 210 -3 14
-12 54 -20 90 -9 36 -17 74 -20 85 -2 11 -6 31 -9 45 -3 14 -7 34 -9 45 -3 11
-10 43 -16 70 -7 28 -14 59 -15 70 -3 16 -40 184 -71 320 -3 11 -9 40 -14 65
-5 25 -12 56 -15 70 -15 62 -18 76 -20 95 -2 11 -4 20 -5 20 -1 0 -3 9 -5 19
-2 11 -11 53 -21 95 -10 42 -19 83 -20 91 -2 8 -8 38 -14 65 -6 28 -13 61 -16
75 -3 14 -9 41 -14 60 -5 19 -11 46 -14 60 -3 14 -10 48 -16 75 -6 28 -13 64
-16 80 -3 17 -9 44 -14 60 -5 17 -11 44 -13 60 -3 17 -8 37 -11 45 -3 8 -7 29
-10 45 -3 17 -12 62 -21 100 -8 39 -17 79 -19 90 -36 167 -48 226 -56 255 -5
19 -11 46 -14 60 -3 14 -7 34 -10 45 -15 68 -145 660 -150 689 -3 11 -5 21 -6
21 -1 0 -3 9 -5 20 -2 11 -8 45 -15 75 -16 73 -18 83 -85 385 -31 143 -59 269
-61 280 -9 43 -14 65 -44 200 -39 173 -69 313 -75 343 -2 12 -6 25 -8 30 -3 4
-8 25 -11 47 -6 39 -36 175 -58 265 -24 99 -22 130 15 210 18 41 44 99 57 127
13 29 25 52 26 50 2 -1 5 -14 8 -27z m-3605 -17 c5 -21 12 -51 15 -68 12 -59
15 -71 30 -135 8 -36 18 -80 21 -99 3 -19 8 -37 10 -41 4 -6 14 -52 20 -95 2
-11 11 -49 20 -85 8 -36 18 -77 20 -92 2 -15 8 -44 14 -65 6 -21 13 -51 15
-68 7 -35 5 -29 45 -205 17 -74 38 -169 47 -210 9 -41 27 -120 40 -175 12 -54
20 -103 18 -107 -3 -4 -1 -8 3 -8 5 0 9 -8 10 -17 0 -10 8 -49 17 -88 9 -38
18 -83 21 -99 2 -15 7 -37 11 -48 3 -11 8 -30 10 -41 2 -12 8 -42 13 -67 6
-25 13 -55 15 -68 3 -13 7 -31 10 -40 3 -9 8 -30 11 -47 5 -28 10 -52 19 -92
14 -58 26 -112 31 -142 3 -19 8 -38 10 -41 3 -4 7 -25 11 -46 3 -22 15 -77 26
-124 11 -47 22 -94 24 -105 1 -11 10 -51 19 -90 9 -38 19 -81 21 -94 3 -12 11
-51 19 -85 8 -33 17 -76 20 -95 3 -19 8 -37 10 -41 2 -4 7 -20 9 -36 10 -50
15 -75 20 -92 3 -9 7 -28 10 -42 4 -24 35 -165 40 -185 2 -5 6 -28 10 -50 5
-22 15 -67 23 -100 22 -86 23 -116 7 -149 -8 -16 -14 -35 -14 -43 0 -7 -4 -13
-10 -13 -5 0 -10 -5 -10 -11 0 -5 -10 -31 -21 -57 -12 -26 -27 -60 -34 -76
l-12 -28 -12 48 c-7 27 -15 60 -17 74 -3 14 -9 41 -14 60 -5 19 -11 46 -14 60
-2 14 -9 45 -15 70 -7 25 -13 54 -15 65 -2 11 -8 40 -14 65 -6 24 -9 46 -7 49
3 2 1 9 -4 15 -5 6 -11 25 -14 41 -3 17 -13 64 -22 105 -25 114 -25 113 -30
144 -3 16 -10 37 -15 46 -5 10 -7 20 -4 23 3 3 -2 29 -10 57 -9 29 -13 56 -10
61 3 5 0 9 -6 9 -6 0 -9 3 -6 8 2 4 -6 52 -19 107 -12 55 -33 145 -45 200 -12
55 -30 136 -41 180 -10 44 -20 91 -23 105 -2 14 -16 77 -30 140 -15 63 -36
158 -47 210 -12 52 -25 113 -30 135 -5 22 -12 54 -15 70 -3 17 -9 44 -14 60
-4 17 -12 48 -16 70 -4 22 -8 45 -10 50 -1 6 -10 42 -19 80 -9 39 -18 79 -20
90 -3 11 -7 29 -9 40 -2 11 -14 63 -26 115 -12 52 -23 106 -26 120 -2 14 -7
36 -11 50 -12 46 -14 55 -17 75 -2 11 -8 40 -14 65 -6 25 -13 56 -16 70 -3 14
-14 66 -26 115 -11 50 -22 99 -24 110 -3 17 -28 129 -42 190 -32 139 -32 136
6 218 16 36 30 70 30 76 0 6 5 11 10 11 6 0 10 9 10 19 0 11 5 23 10 26 6 3
10 15 10 26 0 33 19 21 29 -18z m-219 -562 c11 -45 22 -95 25 -111 3 -17 12
-60 21 -97 9 -38 17 -75 19 -83 2 -8 20 -89 40 -180 20 -91 38 -172 40 -180 2
-8 10 -45 19 -83 9 -37 18 -82 21 -100 3 -17 11 -50 17 -72 5 -22 12 -51 15
-65 5 -32 59 -276 98 -445 8 -33 26 -114 40 -180 15 -66 28 -127 30 -135 2 -8
20 -89 39 -180 20 -91 41 -183 46 -205 26 -108 82 -373 80 -377 -1 -2 4 -16
10 -32 6 -16 13 -45 16 -65 3 -20 8 -43 11 -51 3 -8 9 -33 13 -55 5 -22 11
-51 14 -65 3 -14 8 -34 10 -45 2 -11 10 -42 16 -70 7 -27 14 -63 16 -80 3 -16
8 -37 11 -45 3 -8 9 -33 13 -55 5 -22 11 -51 14 -65 3 -14 8 -36 11 -50 3 -14
12 -52 21 -85 8 -33 15 -67 16 -75 0 -8 7 -43 15 -77 14 -55 13 -66 0 -105
-13 -36 -16 -94 -14 -355 1 -171 -1 -309 -4 -307 -5 3 -15 41 -35 141 -1 6
-12 53 -23 105 -12 51 -23 102 -25 113 -2 11 -12 52 -21 90 -9 39 -19 81 -21
95 -3 14 -10 45 -15 70 -6 25 -12 54 -15 65 -5 27 -60 270 -84 370 -10 44 -22
96 -25 115 -3 19 -12 60 -20 90 -14 54 -23 95 -30 135 -2 11 -20 90 -40 175
-19 85 -45 198 -56 250 -23 109 -22 103 -44 195 -9 39 -19 81 -21 95 -2 14 -7
36 -11 50 -11 46 -14 55 -17 75 -2 11 -17 81 -34 155 -17 74 -33 146 -36 160
-3 14 -8 36 -11 50 -3 14 -8 36 -11 50 -3 14 -9 41 -14 60 -5 19 -11 46 -14
60 -2 14 -7 32 -10 40 -3 8 -8 29 -10 45 -3 17 -11 59 -20 95 -8 36 -24 108
-35 160 -12 52 -24 102 -27 110 -3 8 -8 33 -11 55 -3 22 -9 48 -14 58 -6 9 -8
17 -5 17 3 0 0 15 -5 33 -5 17 -12 48 -15 67 -3 19 -8 39 -11 43 -2 4 -6 20
-8 35 -2 15 -13 65 -24 112 -11 47 -22 96 -25 110 -2 14 -16 74 -29 133 -22
94 -23 111 -12 135 7 15 27 56 43 92 16 36 39 87 51 113 12 27 25 47 27 44 3
-2 14 -41 24 -86z m3604 17 c10 -40 23 -100 31 -133 8 -33 17 -76 20 -95 3
-19 9 -44 12 -55 3 -11 8 -29 9 -40 2 -11 13 -60 24 -110 11 -49 36 -164 56
-255 65 -300 75 -345 79 -360 7 -27 36 -165 41 -190 3 -14 11 -50 19 -80 7
-30 16 -68 19 -85 6 -37 14 -71 20 -93 3 -9 7 -28 10 -42 2 -14 12 -56 21 -95
9 -38 18 -79 20 -90 3 -16 36 -171 50 -235 12 -54 37 -169 41 -190 3 -14 9
-41 14 -60 5 -19 11 -46 14 -60 4 -25 35 -166 40 -185 2 -5 6 -28 10 -50 5
-22 14 -65 22 -95 7 -30 16 -71 19 -90 3 -19 10 -51 15 -70 5 -19 11 -46 14
-60 3 -14 12 -56 21 -95 9 -38 19 -83 21 -100 3 -16 10 -48 16 -70 5 -22 12
-49 14 -60 5 -24 7 -33 33 -155 11 -52 30 -135 41 -185 27 -119 61 -277 100
-455 17 -80 35 -162 41 -183 6 -21 12 -50 14 -65 1 -15 8 -47 15 -72 7 -25 14
-56 17 -70 2 -14 10 -53 18 -88 8 -34 17 -74 20 -90 6 -32 6 -33 40 -182 15
-63 28 -124 29 -135 2 -11 11 -50 20 -88 8 -37 18 -79 21 -95 7 -38 12 -60 24
-112 10 -45 60 -269 67 -303 2 -10 5 -26 8 -35 3 -9 8 -30 11 -47 6 -35 6 -36
40 -190 26 -122 61 -280 72 -325 3 -14 8 -34 10 -45 2 -11 15 -69 29 -130 22
-101 53 -246 57 -270 1 -6 -35 -11 -89 -13 l-90 -3 -13 53 c-15 64 -50 223
-57 258 -3 14 -10 45 -15 70 -6 25 -12 54 -15 65 -2 11 -8 41 -14 66 -6 26
-13 53 -14 60 -2 8 -6 25 -9 39 -4 14 -9 36 -11 50 -6 29 -55 253 -102 460 -8
36 -16 74 -19 85 -2 11 -7 31 -10 45 -3 14 -8 38 -11 54 -2 16 -7 32 -9 36 -2
4 -7 21 -10 39 -3 19 -19 95 -36 170 -17 75 -33 147 -36 161 -2 14 -15 70 -28
125 -13 55 -25 114 -28 130 -3 17 -14 68 -26 115 -11 47 -22 97 -25 110 -2 14
-9 45 -15 70 -7 25 -13 54 -15 65 -5 32 -46 215 -61 275 -7 30 -16 69 -19 85
-3 17 -7 39 -9 50 -14 59 -68 302 -72 320 -2 11 -4 22 -5 25 -1 3 -3 10 -4 15
-1 6 -7 35 -14 65 -7 30 -14 64 -16 75 -2 11 -9 38 -14 60 -6 22 -18 74 -27
115 -9 41 -18 84 -20 95 -10 42 -29 130 -30 135 -1 3 -5 21 -10 40 -4 19 -9
44 -11 55 -2 11 -5 29 -8 40 -3 11 -17 74 -31 139 -14 65 -27 122 -29 125 -2
3 -7 24 -10 46 -4 22 -11 58 -17 80 -6 22 -13 49 -15 60 -2 11 -6 31 -9 45 -3
14 -7 34 -9 45 -2 11 -9 40 -16 65 -7 25 -14 56 -16 70 -2 14 -5 34 -8 45 -3
11 -17 74 -31 140 -27 119 -53 236 -60 265 -2 8 -13 58 -24 110 -11 52 -30
136 -41 185 -11 50 -22 99 -24 110 -3 11 -13 61 -25 110 -11 50 -22 101 -24
115 -3 14 -12 54 -21 90 -9 36 -23 99 -32 140 -9 41 -20 91 -24 110 -4 19 -22
100 -39 180 -18 80 -34 154 -37 165 -11 45 -4 74 34 155 22 47 49 106 61 133
12 26 23 47 25 47 2 0 11 -33 20 -72z m-3849 -531 c3 -18 11 -50 16 -72 6 -22
13 -47 14 -56 2 -9 13 -61 25 -115 13 -55 30 -135 40 -179 10 -44 39 -174 65
-290 26 -115 48 -214 49 -220 1 -5 5 -19 9 -30 3 -11 8 -36 11 -55 3 -19 10
-50 15 -67 5 -18 8 -33 5 -33 -3 0 0 -8 5 -17 5 -10 11 -34 15 -53 3 -19 12
-66 21 -105 9 -38 18 -77 20 -85 2 -11 128 -573 170 -760 2 -8 17 -78 34 -155
17 -77 40 -176 51 -220 10 -44 22 -95 25 -114 3 -19 8 -37 10 -41 3 -4 7 -22
9 -41 3 -19 28 -133 56 -254 28 -121 59 -263 71 -315 11 -52 22 -102 24 -110
2 -8 15 -69 30 -135 15 -66 29 -128 31 -137 2 -10 6 -28 9 -40 3 -13 8 -34 10
-48 3 -14 12 -54 20 -90 9 -36 18 -76 21 -90 3 -14 9 -41 14 -60 5 -19 11 -47
14 -62 2 -15 7 -31 9 -35 3 -5 8 -26 11 -48 4 -22 8 -47 11 -55 2 -8 6 -26 9
-40 3 -14 13 -56 21 -95 9 -39 17 -113 17 -166 0 -90 -3 -102 -35 -171 -19
-41 -38 -84 -41 -96 -9 -26 -25 -29 -28 -4 -1 17 -4 33 -8 42 -1 3 -3 13 -5
24 -2 10 -9 40 -15 66 -6 26 -13 54 -14 61 -2 8 -6 25 -9 39 -4 14 -9 36 -11
50 -2 14 -10 48 -16 75 -6 28 -14 61 -16 75 -3 14 -10 43 -16 65 -5 22 -12 51
-15 65 -2 14 -13 62 -23 108 -11 46 -22 98 -25 115 -3 18 -11 50 -17 72 -5 22
-11 49 -13 60 -3 26 -92 426 -132 595 -8 36 -17 79 -20 95 -2 17 -7 37 -10 45
-3 8 -9 33 -13 55 -4 22 -22 103 -40 180 -17 77 -33 151 -35 165 -1 14 -8 45
-15 70 -7 25 -14 53 -16 63 -2 10 -5 26 -8 35 -3 9 -7 28 -10 42 -3 14 -8 36
-11 50 -3 14 -7 37 -10 52 -3 16 -12 58 -21 95 -21 89 -19 83 -43 193 -24 109
-61 278 -66 300 -4 17 -55 246 -60 273 -2 10 -6 26 -9 35 -3 9 -7 28 -10 42
-2 14 -9 45 -15 70 -5 25 -12 56 -15 70 -2 14 -17 77 -31 140 -14 63 -29 126
-31 140 -3 14 -19 86 -35 160 -17 74 -32 142 -34 150 -2 8 -8 35 -14 60 -5 25
-12 56 -15 70 -3 14 -7 35 -10 48 -8 29 -14 59 -23 102 -10 48 -10 50 -13 53
-1 1 -3 70 -4 152 -2 154 1 173 45 270 20 46 23 48 30 26 5 -12 11 -37 14 -54z
m3616 -28 c11 -52 22 -105 25 -119 3 -14 10 -43 16 -65 6 -22 11 -44 12 -50 1
-5 5 -23 9 -40 4 -16 8 -41 11 -55 2 -14 11 -54 20 -90 13 -55 88 -393 100
-455 3 -11 19 -83 36 -160 17 -77 34 -151 36 -165 3 -14 9 -42 15 -63 6 -21
12 -50 14 -65 2 -15 18 -88 35 -162 17 -74 34 -146 36 -160 3 -14 16 -72 30
-130 14 -58 27 -116 29 -130 2 -14 13 -65 25 -115 11 -49 22 -99 24 -110 2
-11 13 -63 25 -115 12 -52 24 -106 27 -120 3 -14 12 -54 20 -90 9 -36 18 -76
20 -90 3 -14 12 -54 20 -90 9 -36 18 -76 20 -90 3 -14 14 -65 25 -115 11 -49
29 -130 40 -180 36 -161 60 -269 75 -330 7 -33 23 -105 35 -160 12 -55 25
-116 29 -135 4 -19 17 -78 29 -130 11 -52 30 -135 41 -185 11 -49 22 -99 25
-110 2 -11 10 -49 18 -85 19 -81 76 -338 82 -365 2 -11 6 -29 9 -40 8 -34 35
-159 40 -188 2 -15 7 -30 9 -34 3 -5 8 -26 11 -48 4 -22 15 -76 25 -120 11
-44 26 -116 36 -160 9 -44 20 -96 25 -115 15 -61 39 -164 44 -195 6 -33 6 -32
37 -165 12 -52 23 -104 24 -115 2 -11 4 -20 5 -20 1 0 4 -11 6 -24 2 -14 11
-54 19 -89 8 -35 15 -67 15 -73 0 -5 -40 -9 -89 -9 -77 0 -90 3 -95 18 -3 9
-15 62 -27 117 -12 55 -25 116 -29 135 -24 106 -40 183 -45 212 -3 17 -8 35
-10 38 -3 4 -7 25 -11 46 -3 22 -16 84 -29 139 -13 55 -26 111 -28 125 -3 14
-12 55 -21 91 -8 37 -17 78 -20 90 -2 13 -14 69 -26 124 -12 55 -23 111 -26
125 -3 14 -10 43 -16 65 -5 22 -12 51 -15 65 -2 14 -6 34 -8 45 -5 27 -64 293
-72 325 -3 14 -8 34 -10 45 -2 11 -8 36 -13 55 -5 19 -12 49 -14 65 -3 17 -8
39 -10 50 -3 11 -16 72 -30 135 -13 63 -34 156 -45 205 -11 50 -22 104 -25
120 -3 17 -10 45 -15 63 -5 17 -7 32 -4 32 3 0 0 6 -6 13 -6 8 -9 16 -6 18 2
3 -2 29 -10 59 -9 30 -18 71 -21 90 -5 30 -13 65 -40 182 -10 43 -32 152 -40
193 -3 16 -7 32 -9 35 -2 4 -7 22 -10 41 -3 19 -26 122 -50 229 -24 107 -46
209 -49 225 -3 17 -8 41 -12 55 -14 59 -26 116 -29 135 -2 11 -4 20 -5 20 -1
0 -4 11 -5 25 -2 14 -15 75 -29 135 -14 61 -29 125 -32 144 -3 19 -10 45 -15
58 -5 13 -7 23 -4 23 2 0 -2 18 -10 39 -7 22 -12 41 -9 43 2 3 0 18 -5 34 -6
16 -12 43 -15 59 -2 17 -9 53 -16 80 -14 61 -19 81 -26 119 -2 16 -7 32 -9 36
-2 4 -7 22 -10 41 -3 19 -21 106 -41 194 -60 274 -74 339 -79 363 -2 12 -6 25
-8 30 -3 4 -8 24 -11 44 -3 20 -18 94 -34 165 -25 112 -28 147 -27 278 2 149
2 151 35 218 18 37 35 65 37 63 2 -2 13 -46 24 -97z m-3683 -1146 c6 -32 13
-67 16 -78 9 -37 37 -170 42 -195 5 -24 24 -109 44 -195 9 -37 77 -346 86
-390 2 -11 6 -29 9 -40 13 -55 75 -332 81 -365 3 -14 11 -52 19 -85 12 -48 45
-200 100 -452 3 -13 7 -33 10 -45 3 -13 7 -32 9 -43 2 -11 14 -63 26 -115 12
-52 23 -104 26 -115 2 -11 6 -31 9 -45 3 -14 7 -34 10 -45 2 -11 16 -72 30
-135 15 -63 29 -124 31 -135 2 -11 15 -70 28 -130 14 -61 27 -121 30 -135 3
-14 14 -68 26 -120 39 -177 48 -215 84 -380 44 -199 92 -412 113 -500 23 -97
20 -116 -32 -225 -27 -55 -49 -106 -51 -113 -7 -36 -33 -19 -35 23 0 11 -2 27
-4 35 -6 21 -45 200 -51 229 -3 12 -12 53 -20 90 -9 36 -18 75 -20 86 -2 11
-6 29 -8 40 -3 11 -11 49 -20 85 -8 36 -17 79 -20 95 -3 17 -10 45 -16 64 -5
19 -8 37 -5 39 2 3 0 12 -4 21 -5 9 -11 30 -14 46 -3 17 -12 59 -21 95 -8 36
-17 76 -20 90 -2 14 -10 48 -16 75 -6 28 -14 61 -16 74 -3 12 -12 53 -20 90
-9 36 -18 77 -20 91 -3 14 -7 33 -10 42 -5 17 -13 50 -19 83 -2 11 -11 52 -19
90 -9 39 -18 79 -20 90 -2 11 -21 92 -41 180 -20 88 -38 169 -40 180 -3 17
-40 191 -50 235 -24 102 -64 278 -69 305 -2 11 -10 43 -16 70 -6 28 -14 61
-16 75 -3 14 -14 62 -24 108 -11 46 -22 98 -26 115 -5 34 -21 102 -38 175 -3
9 -12 51 -21 92 -9 41 -18 82 -20 90 -12 50 -37 170 -42 195 -3 17 -5 32 -6
35 0 3 8 23 18 45 16 36 18 69 19 302 1 145 4 263 7 263 3 0 11 -26 17 -57z
m3598 39 c0 -4 3 -20 7 -37 7 -30 9 -40 27 -125 5 -25 21 -97 35 -160 34 -153
36 -162 40 -185 2 -11 16 -72 30 -135 15 -63 29 -126 31 -140 2 -14 7 -36 11
-50 4 -14 7 -32 8 -40 1 -8 10 -49 19 -90 10 -41 19 -82 21 -90 2 -8 13 -58
25 -110 12 -52 23 -104 24 -115 1 -11 5 -29 9 -40 3 -11 9 -33 12 -50 12 -61
22 -109 41 -190 3 -11 7 -31 10 -45 16 -76 75 -342 110 -495 2 -11 7 -33 10
-50 2 -16 9 -46 14 -65 5 -19 11 -46 14 -60 2 -14 11 -55 20 -91 8 -37 17 -78
20 -90 2 -13 16 -78 31 -144 34 -153 34 -154 40 -190 3 -16 10 -45 16 -62 6
-18 8 -37 4 -43 -3 -5 -2 -10 2 -10 5 0 10 -10 10 -22 1 -13 7 -43 13 -68 6
-25 14 -56 16 -70 3 -14 10 -43 15 -65 5 -22 11 -49 13 -60 12 -61 27 -133 37
-169 6 -23 13 -52 16 -66 2 -13 11 -56 19 -95 9 -38 18 -81 20 -95 3 -14 10
-43 16 -65 5 -22 12 -51 14 -65 5 -26 70 -327 81 -370 9 -38 10 -39 27 -125
10 -44 31 -141 48 -215 16 -74 32 -144 34 -155 5 -32 34 -168 40 -187 5 -16
-4 -18 -85 -18 -49 0 -92 4 -95 8 -5 8 -8 21 -21 96 -3 16 -8 32 -10 36 -2 4
-7 22 -10 41 -3 19 -15 75 -26 124 -12 50 -23 101 -25 115 -3 14 -10 43 -16
65 -6 22 -12 47 -13 55 -2 16 -16 88 -21 105 -2 6 -6 24 -9 40 -3 17 -13 59
-21 94 -9 36 -17 72 -19 80 -3 17 -18 93 -20 101 0 3 -5 23 -10 45 -4 22 -9
45 -11 50 -3 14 -33 148 -51 230 -16 76 -17 78 -26 115 -6 26 -45 201 -51 235
-13 64 -63 287 -71 315 -1 3 -5 25 -10 50 -10 52 -12 59 -14 63 -2 1 -4 14 -6
28 -2 14 -8 43 -14 65 -5 21 -17 73 -26 114 -16 76 -24 113 -30 140 -2 8 -4
15 -5 15 -1 0 -3 11 -5 25 -2 14 -18 88 -35 165 -17 77 -33 147 -35 155 -1 8
-26 121 -55 250 -28 129 -53 242 -55 250 -2 8 -9 38 -15 65 -6 28 -14 61 -16
75 -3 14 -14 66 -25 115 -12 50 -23 101 -25 115 -3 14 -11 50 -19 80 -7 30
-16 69 -19 85 -2 17 -14 71 -25 120 -64 275 -66 287 -45 326 25 49 27 75 28
336 1 133 3 239 6 236 3 -2 5 -8 6 -11z m-3742 -948 c9 -39 18 -79 20 -90 3
-10 14 -61 25 -112 12 -51 24 -110 27 -130 3 -20 8 -40 10 -43 3 -5 40 -164
49 -209 8 -47 19 -96 21 -105 4 -15 8 -34 48 -215 20 -91 43 -192 51 -225 18
-78 36 -154 41 -185 6 -30 34 -159 40 -182 2 -10 6 -26 8 -35 4 -15 34 -151
76 -343 17 -76 72 -326 76 -345 2 -11 6 -29 8 -40 2 -11 10 -42 16 -70 13 -54
18 -79 24 -110 2 -11 11 -49 19 -85 19 -80 78 -343 93 -415 2 -11 6 -29 8 -40
3 -11 25 -112 51 -225 25 -113 47 -214 49 -224 1 -11 -18 -63 -44 -115 -25
-53 -52 -111 -60 -129 -16 -40 -22 -32 -40 48 -6 30 -21 96 -32 145 -10 50
-21 101 -24 115 -3 14 -10 43 -16 65 -11 43 -13 54 -28 125 -5 25 -16 74 -24
110 -8 36 -17 76 -20 90 -2 14 -10 48 -16 75 -6 28 -14 59 -16 70 -2 11 -6 29
-8 40 -4 18 -52 228 -61 265 -2 8 -11 51 -20 95 -9 44 -25 116 -35 160 -10 45
-21 92 -24 105 -3 14 -15 68 -26 120 -12 52 -23 106 -26 120 -3 14 -9 39 -14
55 -9 32 -36 159 -45 214 -3 19 -8 37 -10 41 -4 6 -8 24 -20 88 -3 15 -12 54
-20 87 -22 97 -93 418 -98 445 -3 14 -12 54 -21 90 -9 36 -23 99 -32 140 -15
70 -41 186 -49 220 -4 19 -26 121 -59 269 -13 63 -23 122 -21 130 2 9 24 61
50 116 26 55 52 111 57 125 l10 25 8 -25 c4 -14 15 -57 24 -96z m3584 94 c2
-24 13 -83 24 -123 5 -22 12 -49 14 -60 7 -38 27 -131 39 -180 3 -11 9 -40 15
-65 5 -25 12 -56 15 -70 3 -14 8 -36 11 -50 3 -14 16 -74 29 -135 14 -60 27
-121 29 -135 7 -38 15 -70 20 -88 3 -9 7 -28 10 -42 3 -14 16 -77 30 -140 14
-63 33 -149 42 -190 9 -41 18 -82 20 -90 5 -24 45 -202 50 -229 3 -12 11 -51
19 -85 8 -33 17 -76 20 -95 3 -19 8 -37 10 -41 2 -4 7 -22 10 -41 3 -19 15
-71 25 -116 11 -46 22 -93 24 -105 2 -13 10 -45 16 -73 13 -54 18 -79 24 -110
2 -11 14 -65 26 -120 12 -55 24 -109 25 -120 2 -11 4 -20 5 -20 1 0 4 -11 6
-24 2 -14 11 -54 20 -90 9 -37 18 -77 20 -91 3 -14 14 -65 25 -115 12 -49 23
-101 25 -115 3 -14 9 -41 14 -60 5 -19 11 -46 14 -60 3 -14 7 -36 11 -50 3
-14 7 -34 9 -45 2 -11 14 -63 26 -115 12 -52 24 -108 26 -125 3 -16 7 -37 10
-45 3 -8 8 -26 10 -40 2 -14 9 -44 14 -67 13 -56 27 -116 40 -178 6 -27 19
-85 29 -127 10 -42 16 -79 13 -82 -3 -4 -44 -6 -92 -6 l-87 0 -28 128 c-32
149 -30 140 -38 172 -4 14 -9 36 -11 50 -9 49 -61 286 -71 320 -1 3 -5 25 -10
50 -10 53 -12 59 -15 63 -1 1 -3 11 -4 22 -2 11 -7 36 -11 55 -5 19 -9 40 -10
45 -1 6 -4 21 -8 35 -7 27 -45 201 -52 238 -2 13 -6 31 -9 40 -3 9 -7 28 -10
42 -6 31 -19 91 -41 195 -18 85 -19 87 -28 125 -3 14 -20 90 -37 170 -17 80
-37 172 -45 205 -8 33 -16 74 -19 90 -7 39 -10 51 -36 165 -12 52 -24 104 -26
115 -2 11 -7 31 -10 45 -2 14 -7 36 -10 50 -3 14 -16 77 -30 140 -14 63 -28
126 -30 140 -3 14 -9 41 -14 60 -5 19 -12 51 -15 70 -3 19 -12 62 -20 95 -17
73 -52 231 -59 265 -8 39 -33 154 -61 280 -15 63 -29 129 -31 145 -3 17 -10
46 -15 66 -9 38 -6 48 84 241 22 48 33 59 35 36z"/>
</g>
</svg>
