<svg xmlns="http://www.w3.org/2000/svg" width="23.659" height="23.5" viewBox="0 0 23.659 23.5">
  <defs>
    <style>
      .cls-1 {
        fill: #9b9b9b;
        stroke: #9b9b9b;
        stroke-miterlimit: 10;
        stroke-width: 0.5px;
      }
    </style>
  </defs>
  <g id="edit" transform="translate(0.25 0.25)">
    <path id="Path" class="cls-1" d="M21.422,11.747a.567.567,0,0,0-.578.555v4.925a1.7,1.7,0,0,1-1.734,1.664H2.89a1.7,1.7,0,0,1-1.734-1.664V2.773A1.7,1.7,0,0,1,2.89,1.109H8.023A.567.567,0,0,0,8.6.555.567.567,0,0,0,8.023,0H2.89A2.837,2.837,0,0,0,0,2.773V17.227A2.837,2.837,0,0,0,2.89,20H19.11A2.837,2.837,0,0,0,22,17.227V12.3A.567.567,0,0,0,21.422,11.747Z" transform="translate(0 3)"/>
    <path id="Shape" class="cls-1" d="M.545,18a.514.514,0,0,1-.386-.18.671.671,0,0,1-.14-.6l1.28-5.2a.625.625,0,0,1,.14-.27L11.171.809a2.266,2.266,0,0,1,3.471,0l.64.72a3.018,3.018,0,0,1,0,3.9L5.551,16.381a.543.543,0,0,1-.24.158L.691,17.977A.489.489,0,0,1,.545,18Zm1.57-4.687-.787,3.193,2.839-.885ZM10.592,3.195l-7.964,8.96L5.2,15.043l7.964-8.96Zm2.314-1.968a1.283,1.283,0,0,0-.964.45l-.579.651,2.569,2.889.579-.651a1.677,1.677,0,0,0,0-2.169l-.64-.72A1.283,1.283,0,0,0,12.906,1.227Z" transform="translate(7)"/>
  </g>
</svg>
