<svg id="LOGO" xmlns="http://www.w3.org/2000/svg" xmlns:xlink="http://www.w3.org/1999/xlink" width="269" height="112" viewBox="0 0 269 112">
  <defs>
    <clipPath id="clip-path">
      <path id="Clip_4" data-name="Clip 4" d="M0,0H14.59V16.724H0Z" transform="translate(0.018 0.276)" fill="none"/>
    </clipPath>
    <clipPath id="clip-path-2">
      <path id="Clip_41" data-name="Clip 41" d="M0,0H44.492V26.19H0Z" transform="translate(0 0.568)" fill="none"/>
    </clipPath>
    <clipPath id="clip-path-3">
      <path id="Clip_52" data-name="Clip 52" d="M0,112H268V0H0Z" fill="none"/>
    </clipPath>
  </defs>
  <path id="Fill_1" data-name="Fill 1" d="M2.281,12A2.1,2.1,0,0,1,.5,11.042a3.158,3.158,0,0,1-.48-2.081,10.491,10.491,0,0,1,2.818-5.83c1.8-2.071,3.6-3.077,5.5-3.077.232,0,.526-.009.867-.019C9.663.022,10.241,0,10.862,0l.4,0c.34.008.668.012,1,.012.413,0,.763-.006,1.072-.011C13.587,0,13.8,0,14,0L10.566,11.716H6.612L8.245,6.877H8a14.147,14.147,0,0,1-2.371,3.289A4.96,4.96,0,0,1,2.281,12ZM7.963,2.357c-.951,0-1.846.706-2.659,2.1A8.384,8.384,0,0,0,4.11,7.877a.728.728,0,0,0,.1.561.348.348,0,0,0,.274.1c.414,0,1.247-.715,2.477-2.124a12.345,12.345,0,0,0,1.9-2.53l.326-1.142A2.171,2.171,0,0,0,7.963,2.357Z" transform="translate(34 96)" fill="#6f7072"/>
  <g id="Group_5" data-name="Group 5" transform="translate(62 95)">
    <path id="Clip_4-2" data-name="Clip 4" d="M0,0H14.59V16.724H0Z" transform="translate(0.018 0.276)" fill="none"/>
    <g id="Group_5-2" data-name="Group 5" clip-path="url(#clip-path)">
      <path id="Fill_3" data-name="Fill 3" d="M3.942,16.724A16.978,16.978,0,0,1,.3,16.411L0,12.883a10.336,10.336,0,0,0,4.75,1.474,2.773,2.773,0,0,0,2.3-1.389A11.493,11.493,0,0,0,8.341,10q.265-.9.528-1.792l.3-1.011H8.684C7.013,10.462,5.2,12.119,3.292,12.119a2.07,2.07,0,0,1-1.832-.933,3.16,3.16,0,0,1-.5-2.174,10.6,10.6,0,0,1,2.8-5.958c1.721-1.989,3.554-3,5.449-3C9.22.057,10.5,0,11.614,0h.247c.366.007.733.01,1.122.01S13.707.008,14,0c.224,0,.419,0,.586,0L11.54,11.418a6.785,6.785,0,0,1-2.6,3.976A8.584,8.584,0,0,1,3.942,16.724ZM8.677,2.457c-.9,0-1.722.685-2.511,2.093A8.376,8.376,0,0,0,5.023,7.961a.847.847,0,0,0,.1.616.236.236,0,0,0,.182.075c.395,0,1.155-.642,2.325-1.963a9.459,9.459,0,0,0,1.9-2.637l.347-1.265A2.244,2.244,0,0,0,8.677,2.457Z" transform="translate(0.018 0.276)" fill="#6f7072"/>
    </g>
  </g>
  <path id="Fill_6" data-name="Fill 6" d="M4.521,12a5.412,5.412,0,0,1-3.251-.949,3,3,0,0,1-1.25-2.9A8.83,8.83,0,0,1,3.078,2.444,8.822,8.822,0,0,1,9.083,0a3.378,3.378,0,0,1,2.111.652,2.075,2.075,0,0,1,.795,1.916A5.16,5.16,0,0,1,9.071,6.454a9.611,9.611,0,0,1-4.9,1.366,1.569,1.569,0,0,0,.345,1.228,2.121,2.121,0,0,0,1.6.513,12.42,12.42,0,0,0,5.475-1.687l-.865,2.84A19.8,19.8,0,0,1,4.521,12Zm2.9-9.438A2.321,2.321,0,0,0,5.658,3.645a5.576,5.576,0,0,0-.983,1.886h.005c2.218,0,3.364-.693,3.5-2.12a.77.77,0,0,0-.139-.627A.8.8,0,0,0,7.417,2.561Z" transform="translate(76 96)" fill="#6f7072"/>
  <path id="Fill_8" data-name="Fill 8" d="M12,.346l-.742,2.477a7.946,7.946,0,0,0-2.578-.517c-1.083,0-1.67.348-1.735,1.052-.046.333.231.745.8,1.278.914.828,1.447,1.324,1.583,1.494a2.664,2.664,0,0,1,.719,2.056,3.649,3.649,0,0,1-2.1,3A7.937,7.937,0,0,1,4.208,12,17.156,17.156,0,0,1,0,11.371l.812-2.7A9.585,9.585,0,0,0,4.421,9.7a1.513,1.513,0,0,0,.945-.313,1.03,1.03,0,0,0,.468-.78,2.035,2.035,0,0,0-.7-1.472c-.5-.5-1-1.019-1.47-1.539A2.8,2.8,0,0,1,3,3.552,3.422,3.422,0,0,1,5.136.711,8.627,8.627,0,0,1,8.774,0C8.968,0,10.046.116,12,.346" transform="translate(89 96)" fill="#6f7072"/>
  <path id="Fill_10" data-name="Fill 10" d="M14,.5l-.718,2.546a6.22,6.22,0,0,0-2.6-.673,1.838,1.838,0,0,0-1.707.93,8.953,8.953,0,0,0-.689,2.013h3.007l-.71,2.37H7.633L4.108,20H0L4.221,5.316A8.328,8.328,0,0,1,6.834,1.436,6.66,6.66,0,0,1,11.077,0,8.339,8.339,0,0,1,14,.5" transform="translate(107 90)" fill="#6f7072"/>
  <path id="Fill_12" data-name="Fill 12" d="M4.31,12a4.935,4.935,0,0,1-3.1-.953,3.072,3.072,0,0,1-1.193-2.9A8.687,8.687,0,0,1,2.94,2.45,8.262,8.262,0,0,1,8.689,0a4.871,4.871,0,0,1,3.1.931,2.97,2.97,0,0,1,1.182,2.893,8.849,8.849,0,0,1-2.918,5.682A8.312,8.312,0,0,1,4.31,12ZM7.637,2.434A2.97,2.97,0,0,0,5.07,4.242,7.58,7.58,0,0,0,4.035,7.435a2.579,2.579,0,0,0,.211,1.43,1.2,1.2,0,0,0,1.12.7A3.014,3.014,0,0,0,7.933,7.742a7.637,7.637,0,0,0,1.035-3.2,2.728,2.728,0,0,0-.193-1.449A1.185,1.185,0,0,0,7.637,2.434Z" transform="translate(118 96)" fill="#6f7072"/>
  <path id="Fill_14" data-name="Fill 14" d="M13,.148,11.825,3.867c-.266-.288-1.059-.272-1.375-.272-.713,0-1.716.626-3.023,1.863A8,8,0,0,0,5.252,8.337L4.166,12H0L3.589.031H7.716L5.88,5.234h.261A15.357,15.357,0,0,1,8.623,1.867a5.148,5.148,0,0,1,3.5-1.861c.418,0,.6-.048.873.142" transform="translate(131 95)" fill="#6f7072"/>
  <path id="Fill_16" data-name="Fill 16" d="M9,2.372,8.283,4.617H6.255c-.327.957-.638,1.907-.974,2.856a15.025,15.025,0,0,0-.7,2.889c-.073.747.207,1.1.852,1.1a2.743,2.743,0,0,0,1.347-.448l-.758,2.472A14.9,14.9,0,0,1,2.863,14a3.621,3.621,0,0,1-2.1-.561,1.9,1.9,0,0,1-.743-1.857A16.052,16.052,0,0,1,.879,8.055c.4-1.136,2.433-7.47,2.433-7.47L7.688,0,6.963,2.372Z" transform="translate(151 94)" fill="#6f7072"/>
  <path id="Fill_18" data-name="Fill 18" d="M4.511,12a5.323,5.323,0,0,1-3.239-.949,3.018,3.018,0,0,1-1.254-2.9A8.824,8.824,0,0,1,3.074,2.444,8.86,8.86,0,0,1,9.092,0a3.4,3.4,0,0,1,2.1.652,2.066,2.066,0,0,1,.795,1.916c-.157,1.55-1.109,2.821-2.911,3.885A9.675,9.675,0,0,1,4.186,7.82a1.552,1.552,0,0,0,.332,1.226,2.108,2.108,0,0,0,1.6.514A12.527,12.527,0,0,0,11.6,7.874l-.873,2.84A19.822,19.822,0,0,1,4.511,12Zm2.9-9.438A2.364,2.364,0,0,0,5.648,3.645a5.691,5.691,0,0,0-.967,1.886h.011A4.971,4.971,0,0,0,7.215,5,1.991,1.991,0,0,0,8.2,3.41a.814.814,0,0,0-.16-.637A.818.818,0,0,0,7.415,2.561Z" transform="translate(174 96)" fill="#6f7072"/>
  <path id="Fill_20" data-name="Fill 20" d="M4.519,12a5.367,5.367,0,0,1-3.247-.949,2.966,2.966,0,0,1-1.248-2.9A8.7,8.7,0,0,1,3.071,2.444,8.865,8.865,0,0,1,9.09,0a3.405,3.405,0,0,1,2.1.652,2.037,2.037,0,0,1,.793,1.916c-.148,1.551-1.1,2.822-2.912,3.885A9.6,9.6,0,0,1,4.185,7.82a1.551,1.551,0,0,0,.331,1.227,2.107,2.107,0,0,0,1.6.514,12.453,12.453,0,0,0,5.472-1.687l-.853,2.84A19.951,19.951,0,0,1,4.519,12Zm2.9-9.438A2.319,2.319,0,0,0,5.657,3.645,5.143,5.143,0,0,0,4.7,5.531h0c2.175,0,3.352-.713,3.5-2.12a.792.792,0,0,0-.155-.63A.817.817,0,0,0,7.414,2.561Z" transform="translate(213 96)" fill="#6f7072"/>
  <path id="Fill_22" data-name="Fill 22" d="M9,2.152,8.272,4.417h-2c-.342.948-.672,2.106-.993,3.051a13.156,13.156,0,0,0-.689,2.891c-.082.747.2,1.1.842,1.1a2.6,2.6,0,0,0,1.322-.448l-.744,2.472A14.533,14.533,0,0,1,2.862,14a3.607,3.607,0,0,1-2.1-.566A1.95,1.95,0,0,1,.01,11.573,17.576,17.576,0,0,1,.886,8.053C1.269,6.913,3.308.589,3.308.589L7.685,0,6.976,2.152Z" transform="translate(226 94)" fill="#6f7072"/>
  <path id="Fill_24" data-name="Fill 24" d="M9,2.152,8.3,4.417H6.28c-.321.948-.706,2.106-1.019,3.051a13.826,13.826,0,0,0-.688,2.891c-.079.747.195,1.1.829,1.1a2.65,2.65,0,0,0,1.343-.448L6,13.481A14.615,14.615,0,0,1,2.847,14a3.542,3.542,0,0,1-2.1-.566,1.91,1.91,0,0,1-.731-1.861A16.949,16.949,0,0,1,.864,8.053C1.25,6.913,3.287.589,3.287.589L7.654,0,6.985,2.152Z" transform="translate(235 94)" fill="#6f7072"/>
  <path id="Fill_26" data-name="Fill 26" d="M4.526,12a5.388,5.388,0,0,1-3.257-.949,2.954,2.954,0,0,1-1.246-2.9A8.731,8.731,0,0,1,3.073,2.444,8.837,8.837,0,0,1,9.09,0a3.45,3.45,0,0,1,2.119.652,2.064,2.064,0,0,1,.777,1.916A5.151,5.151,0,0,1,9.075,6.454,9.577,9.577,0,0,1,4.182,7.82,1.542,1.542,0,0,0,4.5,9.045a2.12,2.12,0,0,0,1.613.515,12.613,12.613,0,0,0,5.491-1.687l-.871,2.84A20.05,20.05,0,0,1,4.526,12ZM7.413,2.561A2.321,2.321,0,0,0,5.659,3.645a5.778,5.778,0,0,0-.984,1.886h.005c2.215,0,3.359-.693,3.5-2.12a.785.785,0,0,0-.141-.633A.8.8,0,0,0,7.413,2.561Z" transform="translate(243 96)" fill="#6f7072"/>
  <path id="Fill_28" data-name="Fill 28" d="M.044,13.456C-.4,18.178,2.525,21,7.881,21a41.317,41.317,0,0,0,8.539-1.072c.1-.338.657-2.188.9-2.982-.235.061-.479.143-.479.143a25.7,25.7,0,0,1-6.353,1.232c-3.24,0-5.224-2.216-4.91-5.512.459-4.889,4.374-10.13,9.456-10.13A15.713,15.713,0,0,1,21.045,4c.146-.533.766-2.621.955-3.2A26.145,26.145,0,0,0,15.762,0C6.342,0,.58,7.82.044,13.456" transform="translate(0 88)" fill="#6f7072"/>
  <path id="Fill_30" data-name="Fill 30" d="M9.716,20H0L5.844,0h6.427c1.895,0,4.759,0,6.038,1.412a3.016,3.016,0,0,1,.668,2.422C18.7,6.843,15.571,8.953,12.785,9.64V9.7c1.347.36,4.449,1.535,4.147,4.634a5.723,5.723,0,0,1-2.925,4.441A8.874,8.874,0,0,1,9.716,20ZM7.484,11.284h0L5.67,17.311a5.567,5.567,0,0,0,1.883.229c1.565,0,4.225-.4,4.455-3.108a2.461,2.461,0,0,0-.57-1.973c-.709-.779-2.039-1.175-3.955-1.175Zm3.964-8.673a5.134,5.134,0,0,0-1.4.231L8.492,8.152h1.585A4.417,4.417,0,0,0,14.13,4.308a1.325,1.325,0,0,0-.3-1.064A3.337,3.337,0,0,0,11.448,2.611Z" transform="translate(195 88)" fill="#6f7072"/>
  <path id="Fill_32" data-name="Fill 32" d="M13,.252,11.585,3.874A3.181,3.181,0,0,0,10.326,3.6c-.712,0-1.707.626-3,1.864A7.845,7.845,0,0,0,5.18,8.336L4.107,12H0L3.509.044H7.59L5.8,5.236H6.07A14.6,14.6,0,0,1,8.516,1.864,5.083,5.083,0,0,1,11.98,0,1.978,1.978,0,0,1,13,.252" transform="translate(256 95)" fill="#6f7072"/>
  <path id="Fill_34" data-name="Fill 34" d="M11.3,12H7.216s2.122-6.568,2.3-7.954c0,0,.085-.437-.207-.35a11.9,11.9,0,0,0-2.3,2.165A9.946,9.946,0,0,0,5.194,8.341L4.12,12H0L3.532.007h4.06L5.8,5.244h.278A13.952,13.952,0,0,1,8.517,1.86,5.091,5.091,0,0,1,11.971,0,1.958,1.958,0,0,1,13.58.71a2.516,2.516,0,0,1,.263,2.4Z" transform="translate(48 95)" fill="#6f7072"/>
  <path id="Fill_36" data-name="Fill 36" d="M7.191,17s2.054-6.831,2.319-8.1c0,0,.146-.476-.2-.356a11.53,11.53,0,0,0-2.291,2.213A10.362,10.362,0,0,0,5.19,13.276L4.1,17H0L4.895,0H8.981C8.057,3.391,7,6.757,5.791,10.122h.268A15.564,15.564,0,0,1,8.5,6.678a5.1,5.1,0,0,1,3.459-1.894,1.932,1.932,0,0,1,1.609.723,2.5,2.5,0,0,1,.27,2.432L11.285,17Z" transform="translate(20 91)" fill="#6f7072"/>
  <path id="Fill_38" data-name="Fill 38" d="M7.208,17s2.055-6.831,2.3-8.107c0,0,.15-.473-.191-.347a11.161,11.161,0,0,0-2.308,2.2,11.008,11.008,0,0,0-1.824,2.526L4.127,17H0L4.908,0H8.989q-1.371,5.072-3.2,10.122h.272a15.186,15.186,0,0,1,2.44-3.444,5.108,5.108,0,0,1,3.457-1.894,2.013,2.013,0,0,1,1.626.712,2.662,2.662,0,0,1,.261,2.443L11.286,17Z" transform="translate(159 91)" fill="#6f7072"/>
  <g id="Group_42" data-name="Group 42" transform="translate(0 51)">
    <path id="Clip_41-2" data-name="Clip 41" d="M0,0H44.492V26.19H0Z" transform="translate(0 0.568)" fill="none"/>
    <g id="Group_42-2" data-name="Group 42" clip-path="url(#clip-path-2)">
      <path id="Fill_40" data-name="Fill 40" d="M29.656,26.19H0L14.843,0H44.492Z" transform="translate(0 0.568)" fill="#e10025"/>
    </g>
  </g>
  <path id="Fill_43" data-name="Fill 43" d="M15,26H45L30,0H0Z" transform="translate(45 52)" fill="#e10025"/>
  <path id="Fill_45" data-name="Fill 45" d="M30,25.987,15,0,0,25.987,15,52Z" transform="translate(30)" fill="#e10025"/>
  <path id="Fill_47" data-name="Fill 47" d="M5.1,14H17.132V9.676H5.1V4.328H18.643V0H0V25H19V20.674H5.1Z" transform="translate(98 53)" fill="#1a171b"/>
  <path id="Fill_49" data-name="Fill 49" d="M4.726,6.418,10.05,25h4.883L20.271,6.418V25H25V0H17.743l-5.25,17.549L7.241,0H0V25H4.726Z" transform="translate(98 23)" fill="#1a171b"/>
  <path id="Clip_52-2" data-name="Clip 52" d="M0,112H268V0H0Z" fill="none"/>
  <g clip-path="url(#clip-path-3)">
    <path id="Fill_51" data-name="Fill 51" d="M0,25H5V0H0Z" transform="translate(213 23)" fill="#1a171b"/>
    <path id="Fill_53" data-name="Fill 53" d="M0,25H5V0H0Z" transform="translate(217 53)" fill="#1a171b"/>
    <path id="Fill_54" data-name="Fill 54" d="M0,25H5V0H0Z" transform="translate(263 23)" fill="#1a171b"/>
    <path id="Fill_55" data-name="Fill 55" d="M0,25H5V0H0Z" transform="translate(125 23)" fill="#1a171b"/>
    <path id="Fill_56" data-name="Fill 56" d="M15.019,9.758H4.973V0H0V25H4.973V14.086H15.019V25H20V0H15.019Z" transform="translate(241 23)" fill="#1a171b"/>
    <path id="Fill_57" data-name="Fill 57" d="M5.987,25h5.024V4.311H17V0H0V4.311H5.987Z" transform="translate(132 23)" fill="#1a171b"/>
    <path id="Fill_58" data-name="Fill 58" d="M5.982,25h5.037V4.322H17V0H0V4.322H5.982Z" transform="translate(178 53)" fill="#1a171b"/>
    <path id="Fill_59" data-name="Fill 59" d="M9.93,26C16.406,26,20,23.047,20,17.394V0H14.911V17.851c0,2.18-1.823,3.995-4.981,3.995-3.821,0-4.942-2.143-4.942-3.995V0H0V17.394C0,23.463,3.751,26,9.93,26" transform="translate(170 23)" fill="#1a171b"/>
    <path id="Fill_60" data-name="Fill 60" d="M5.1,14H17.14V9.676H5.1V4.328H18.66V0H0V25H19V20.674H5.1Z" transform="translate(137 53)" fill="#1a171b"/>
    <path id="Fill_61" data-name="Fill 61" d="M12.453,25H0V0H11.3c4.9,0,7.826,2.3,7.826,6.145A5.635,5.635,0,0,1,15.154,11.7,6.878,6.878,0,0,1,20,18.249,6.4,6.4,0,0,1,18,23.1,7.99,7.99,0,0,1,12.453,25ZM5.019,13.967v7.24h5.929A3.649,3.649,0,0,0,14.792,17.6c0-2.206-1.532-3.632-3.9-3.632Zm0-10v6.11h6.024a3.058,3.058,0,1,0,.278-6.11Z" transform="translate(192 23)" fill="#1a171b"/>
    <path id="Fill_62" data-name="Fill 62" d="M5.13,25H0V0H11.565a9.291,9.291,0,0,1,6.068,1.83,6.5,6.5,0,0,1,2.172,5.163,6.147,6.147,0,0,1-4.5,6.053,5.641,5.641,0,0,1,2.5,1.671,6.173,6.173,0,0,1,1.279,3.705A39.722,39.722,0,0,0,20,25H14.844a20.33,20.33,0,0,1-.451-3.429,23.489,23.489,0,0,0-.407-3.3c-.478-1.984-2.123-3.122-4.512-3.122H5.13V25Zm0-20.656v6.807h6.329a3.5,3.5,0,0,0,3.316-3.4A3.292,3.292,0,0,0,11.3,4.345Z" transform="translate(196 53)" fill="#1a171b"/>
    <path id="Fill_63" data-name="Fill 63" d="M5.114,0H0V25H17V20.673H5.114Z" transform="translate(119 53)" fill="#1a171b"/>
    <path id="Fill_64" data-name="Fill 64" d="M8.482,14.962c4.027.691,6.3,1.43,6.3,3.807,0,1.633-1.6,3.157-4.928,3.157-3.347,0-5.048-1.891-5.048-4.132H0C0,22.1,2.783,26,10.064,26,17,26,20,22.355,20,18.193c0-3.879-2.571-6.344-7.137-7.228C8.474,10.091,5.448,9.922,5.448,7.15c0-1.9,1.755-3.029,4.435-3.029,2.871,0,4.513,1.388,4.513,3.757h4.832C19.228,4,16.285,0,9.7,0,5.151,0,.433,2.595.433,7.462c0,4.092,3.027,6.632,8.048,7.5" transform="translate(149 23)" fill="#1a171b"/>
    <path id="Fill_65" data-name="Fill 65" d="M8.486,14.962c4.027.691,6.3,1.43,6.3,3.807,0,1.633-1.6,3.157-4.938,3.157S4.8,20.035,4.8,17.795H0C0,22.1,2.789,26,10.067,26,17,26,20,22.355,20,18.193c0-3.879-2.557-6.344-7.121-7.228C8.472,10.091,5.462,9.922,5.462,7.15c0-1.9,1.744-3.029,4.429-3.029,2.862,0,4.5,1.388,4.5,3.757h4.855C19.247,4,16.28,0,9.7,0,5.146,0,.435,2.595.435,7.462c0,4.092,3.036,6.632,8.052,7.5" transform="translate(220 23)" fill="#1a171b"/>
    <path id="Fill_66" data-name="Fill 66" d="M11.5,21.622c-4.017,0-6.366-3.958-6.366-8.689S7.4,4.23,11.5,4.23c3.067,0,4.616,1.919,5.3,4.263h5.17C21.125,3.611,17.361,0,11.368,0,3.816,0,0,5.827,0,13S3.975,26,11.368,26c5.907,0,9.9-3.468,10.632-8.777H16.8c-.679,2.5-2.3,4.4-5.3,4.4" transform="translate(156 52)" fill="#1a171b"/>
    <path id="Fill_67" data-name="Fill 67" d="M11.5,21.622c-4.008,0-6.359-3.958-6.359-8.689s2.258-8.7,6.359-8.7c3.062,0,4.618,1.919,5.282,4.263h5.18C21.108,3.611,17.331,0,11.35,0,3.814,0,0,5.827,0,13S3.963,26,11.35,26c5.912,0,9.9-3.468,10.65-8.777H16.778c-.665,2.5-2.3,4.4-5.282,4.4" transform="translate(224 52)" fill="#1a171b"/>
  </g>
</svg>
