<svg id="ranking-cup" xmlns="http://www.w3.org/2000/svg" width="38" height="40" viewBox="0 0 38 40">
  <defs>
    <style>
      .cls-1 {
        fill: #ffe328;
      }
    </style>
  </defs>
  <path id="Shape" class="cls-1" d="M28.058,40H9.945a.681.681,0,0,1-.6-.33.569.569,0,0,1,.045-.637l2.958-3.887a.7.7,0,0,1,.552-.264h3.407V27.129a10.853,10.853,0,0,1-5.4-2.9,9.37,9.37,0,0,1-2.7-5.2,6.857,6.857,0,0,1-4.242-1.867C-.127,13.333-.005,4.8,0,4.435A1.3,1.3,0,0,1,1.346,3.226l6.761,0V.616A.647.647,0,0,1,8.779,0H29.221a.647.647,0,0,1,.672.616V3.222l6.761,0A1.3,1.3,0,0,1,38,4.435c.007.362.129,8.9-3.971,12.723a6.861,6.861,0,0,1-4.243,1.867,9.371,9.371,0,0,1-2.7,5.2,10.85,10.85,0,0,1-5.4,2.9v7.753H25.1a.691.691,0,0,1,.551.264l2.929,3.847a.667.667,0,0,1,.154.392A.647.647,0,0,1,28.058,40ZM29.894,5.686V16.53a4.088,4.088,0,0,0,2.214-1.1c2.636-2.459,3.1-8.079,3.181-9.743Zm-21.787,0-5.393,0c.081,1.664.545,7.289,3.182,9.745a4.078,4.078,0,0,0,2.211,1.1Z"/>
</svg>
