<?xml version="1.0" encoding="utf-8"?>
<!-- Generator: Adobe Illustrator 24.1.0, SVG Export Plug-In . SVG Version: 6.00 Build 0)  -->
<svg version="1.1" id="Calque_1" xmlns="http://www.w3.org/2000/svg" xmlns:xlink="http://www.w3.org/1999/xlink" x="0px" y="0px"
	 viewBox="0 0 283.46 283.46" fill="#FFF" xml:space="preserve">
<g id="BHG3LJ_1_">
	<g>
		<path d="M169.1,23.89c14.64,0,29.28,0,43.91,0c0.79,0.29,1.32,0.79,1.51,1.65c0.51,2.38,1.03,4.76,1.55,7.14
			c1.83,8.33,3.66,16.66,5.49,24.99c1.91,8.67,3.82,17.35,5.73,26.02c2.14,9.75,4.28,19.5,6.42,29.25
			c2.46,11.19,4.93,22.38,7.39,33.56c2.07,9.4,4.13,18.81,6.19,28.21c2.43,11.07,4.87,22.15,7.3,33.22c0.15,0.67,0.3,1.33,0.45,2
			c0,0.43,0,0.87,0,1.3c-0.25,0.64-0.7,1.06-1.37,1.26c-0.27,0.08-0.55,0.07-0.82,0.07c-14.07,0-28.13,0-42.2,0
			c-0.14,0-0.28,0-0.41,0c-0.85-0.04-1.59-0.62-1.82-1.44c-0.07-0.26-0.11-0.54-0.17-0.81c-2.22-10.16-4.44-20.31-6.66-30.47
			c-2.15-9.83-4.29-19.66-6.43-29.49c-2.04-9.33-4.07-18.66-6.12-27.99c-0.05-0.24-0.05-0.5-0.21-0.72
			c-0.22,0.15-0.26,0.37-0.34,0.56c-2.11,4.55-4.22,9.1-6.34,13.64c-0.2,0.42-0.28,0.84-0.28,1.3c0.01,12.45,0,24.91,0.01,37.36
			c0,0.65-0.12,1.23-0.39,1.82c-1.25,2.65-2.48,5.31-3.71,7.97c-4.13,8.9-8.27,17.79-12.37,26.7c-0.51,1.11-1.25,1.59-2.47,1.58
			c-7.77-0.03-15.54-0.01-23.31-0.01c-6.3,0-12.59,0-18.89,0c-0.27,0-0.55,0.02-0.82-0.06c-0.92-0.26-1.36-0.91-1.56-1.81
			c-2.12-9.58-4.25-19.15-6.38-28.72c-2.18-9.82-4.36-19.65-6.54-29.47c-2.08-9.34-4.15-18.69-6.23-28.03
			c-0.2-0.91-0.41-1.82-0.62-2.76c-0.24,0.14-0.27,0.35-0.34,0.51c-2.08,4.47-4.15,8.95-6.24,13.42c-0.25,0.53-0.35,1.06-0.35,1.64
			c0.01,12.43,0.01,24.87,0.01,37.3c0,0.5-0.06,0.97-0.27,1.43C85.91,187.8,80.46,199.57,75,211.34c-0.29,0.62-0.75,0.99-1.39,1.17
			c-0.25,0.07-0.51,0.05-0.76,0.05c-14.07,0-28.13,0-42.2,0c-0.1,0-0.2,0-0.3,0c-0.81-0.03-1.43-0.38-1.81-1.11
			c-0.08-0.16-0.16-0.32-0.28-0.45c0-0.28,0-0.55,0-0.83c0.31-0.3,0.41-0.71,0.58-1.08c5.24-11.28,10.47-22.57,15.72-33.85
			c0.21-0.46,0.31-0.91,0.31-1.42c-0.01-12.45,0-24.9-0.01-37.35c0-0.6,0.11-1.15,0.37-1.7c5.28-11.35,10.54-22.71,15.82-34.06
			c0.22-0.48,0.32-0.95,0.32-1.47c-0.01-12.41,0-24.82-0.01-37.23c0-0.66,0.12-1.27,0.4-1.88c5.2-11.52,10.38-23.04,15.55-34.57
			c0.35-0.78,0.76-1.41,1.61-1.66c14.64,0,29.28,0,43.91,0c0.2,0.11,0.41,0.21,0.6,0.33c0.6,0.38,0.78,1,0.92,1.64
			c1.05,4.76,2.1,9.52,3.15,14.27c1.7,7.71,3.41,15.42,5.11,23.14c1.83,8.29,3.66,16.58,5.49,24.86c1.99,9,3.98,17.99,5.97,26.99
			c0.04,0.18,0.06,0.37,0.18,0.55c0.19-0.13,0.23-0.34,0.31-0.51c2.26-4.87,4.51-9.73,6.78-14.6c0.19-0.4,0.28-0.8,0.28-1.24
			c-0.01-12.45,0-24.9-0.01-37.35c0-0.69,0.13-1.31,0.42-1.93c5.17-11.46,10.34-22.93,15.48-34.41
			C167.84,24.85,168.24,24.18,169.1,23.89z M102.03,27.83c-0.26-0.09-0.46-0.06-0.65-0.06c-1,0-2.01,0.03-3.01-0.01
			c-0.49-0.02-0.72,0.15-0.92,0.59c-4.91,10.94-9.83,21.87-14.76,32.81c-0.21,0.46-0.3,0.91-0.3,1.42c0.01,12.45,0,24.91,0.01,37.36
			c0,0.62-0.12,1.19-0.39,1.76c-5.28,11.36-10.54,22.72-15.82,34.07c-0.2,0.44-0.3,0.87-0.3,1.36c0.01,12.49,0.01,24.99,0.01,37.48
			c0,0.57-0.11,1.08-0.35,1.59c-1,2.14-1.99,4.28-2.98,6.42c-3.92,8.45-7.84,16.9-11.76,25.36c-0.1,0.21-0.26,0.4-0.22,0.65
			c0.2,0.09,0.4,0.05,0.59,0.05c1,0,2.01-0.02,3.01,0.01c0.46,0.02,0.68-0.14,0.88-0.56c5.08-10.99,10.18-21.98,15.28-32.96
			c0.19-0.4,0.27-0.8,0.27-1.25c-0.01-12.49,0-24.99-0.01-37.48c0-0.58,0.11-1.11,0.36-1.65c5.28-11.36,10.54-22.72,15.82-34.07
			c0.23-0.5,0.34-0.98,0.34-1.53c-0.01-12.41,0-24.83-0.01-37.24c0-0.64,0.12-1.23,0.38-1.82c4.76-10.55,9.51-21.11,14.26-31.67
			C101.85,28.26,101.93,28.06,102.03,27.83z M123.65,208.62c0.19,0.09,0.39,0.05,0.58,0.05c1,0,2.01-0.03,3.01,0.01
			c0.49,0.02,0.71-0.16,0.91-0.6c5.07-10.96,10.15-21.9,15.23-32.85c0.2-0.44,0.3-0.87,0.3-1.36c-0.01-12.45,0-24.91-0.01-37.36
			c0-0.65,0.13-1.23,0.4-1.82c5.26-11.32,10.51-22.64,15.77-33.96c0.22-0.48,0.33-0.94,0.33-1.47c-0.01-12.43-0.01-24.87-0.01-37.3
			c0-0.64,0.13-1.23,0.39-1.82c4.76-10.55,9.51-21.11,14.26-31.67c0.09-0.21,0.24-0.4,0.22-0.65c-0.2-0.08-0.4-0.05-0.6-0.05
			c-1,0-2.01,0.02-3.01-0.01c-0.48-0.02-0.72,0.13-0.92,0.58c-4.91,10.96-9.84,21.91-14.78,32.86c-0.2,0.44-0.29,0.88-0.29,1.36
			c0.01,12.47,0,24.95,0.01,37.42c0,0.6-0.12,1.15-0.38,1.7c-5.27,11.34-10.53,22.68-15.79,34.02c-0.23,0.5-0.33,0.99-0.33,1.53
			c0.01,12.43,0.01,24.87,0.01,37.3c0,0.54-0.06,1.05-0.3,1.55c-1.64,3.53-3.27,7.06-4.91,10.59c-3.32,7.15-6.64,14.3-9.96,21.45
			C123.72,208.27,123.59,208.42,123.65,208.62z M149.38,208.67c1.23,0,2.41-0.02,3.59,0.01c0.47,0.01,0.72-0.12,0.93-0.58
			c5.07-10.97,10.16-21.94,15.25-32.9c0.2-0.42,0.29-0.83,0.29-1.3c-0.01-12.43,0-24.87-0.02-37.3c0-0.71,0.14-1.34,0.44-1.98
			c5.26-11.3,10.5-22.61,15.75-33.91c0.22-0.48,0.33-0.94,0.33-1.47c-0.01-12.43-0.01-24.87-0.01-37.3c0-0.64,0.13-1.23,0.39-1.82
			c4.75-10.54,9.49-21.08,14.24-31.62c0.09-0.21,0.23-0.41,0.25-0.64c-0.04-0.03-0.08-0.07-0.11-0.07c-1.3-0.01-2.6-0.01-3.89-0.02
			c-0.22,0-0.32,0.1-0.39,0.28c-0.05,0.13-0.11,0.25-0.17,0.38c-4.91,10.92-9.83,21.83-14.75,32.74c-0.2,0.44-0.29,0.88-0.29,1.36
			c0.01,12.45,0,24.91,0.01,37.36c0,0.65-0.13,1.23-0.4,1.82c-5.27,11.34-10.53,22.68-15.79,34.02c-0.21,0.46-0.32,0.91-0.32,1.41
			c0.01,12.45,0.01,24.91,0.01,37.36c0,0.63-0.12,1.2-0.38,1.76c-4.9,10.55-9.8,21.11-14.7,31.67
			C149.54,208.14,149.4,208.34,149.38,208.67z M59.17,208.67c1.33,0,2.66,0,4,0c0.15,0,0.26-0.06,0.32-0.21
			c0.06-0.15,0.13-0.28,0.2-0.43c5.06-10.91,10.12-21.83,15.19-32.74c0.21-0.46,0.31-0.91,0.31-1.42
			c-0.01-12.45-0.01-24.91-0.01-37.36c0-0.62,0.13-1.19,0.39-1.76c5.28-11.36,10.54-22.72,15.82-34.07
			c0.21-0.46,0.31-0.91,0.31-1.42c-0.01-12.43,0-24.87-0.01-37.3c0-0.65,0.12-1.23,0.39-1.82c4.77-10.57,9.53-21.15,14.28-31.73
			c0.09-0.19,0.23-0.37,0.2-0.6c-0.19-0.09-0.39-0.05-0.58-0.05c-1,0-2.01,0.02-3.01-0.01c-0.47-0.02-0.72,0.12-0.92,0.58
			c-4.93,11-9.88,21.98-14.83,32.97c-0.17,0.37-0.24,0.73-0.24,1.14c0.01,12.47,0,24.95,0.01,37.42c0,0.69-0.13,1.31-0.42,1.93
			c-5.27,11.34-10.53,22.68-15.8,34.02c-0.2,0.44-0.3,0.87-0.3,1.36c0.01,12.45,0,24.91,0.01,37.36c0,0.65-0.13,1.23-0.4,1.82
			c-4.91,10.55-9.8,21.11-14.7,31.67C59.28,208.2,59.14,208.38,59.17,208.67z M93.4,27.77c-1.36,0-2.71,0-4.07,0
			c-0.16,0-0.25,0.09-0.3,0.23c-0.05,0.13-0.12,0.25-0.17,0.38c-4.92,10.93-9.84,21.87-14.77,32.8c-0.19,0.42-0.28,0.84-0.28,1.3
			c0.01,12.47,0,24.95,0.01,37.42c0,0.63-0.12,1.2-0.38,1.76c-5.29,11.39-10.58,22.79-15.87,34.18c-0.19,0.4-0.27,0.8-0.27,1.25
			c0.01,12.47,0,24.95,0.01,37.42c0,0.65-0.13,1.23-0.4,1.82c-4.9,10.54-9.79,21.08-14.67,31.62c-0.1,0.21-0.24,0.41-0.25,0.67
			c0.19,0.08,0.39,0.05,0.58,0.05c1,0,2.01-0.02,3.01,0.01c0.47,0.02,0.8-0.09,0.92-0.58c0.01-0.04,0.04-0.07,0.05-0.11
			c5.07-10.93,10.14-21.86,15.22-32.79c0.19-0.4,0.28-0.8,0.28-1.24c-0.01-12.49,0-24.99-0.01-37.48c0-0.61,0.12-1.15,0.38-1.7
			c5.28-11.37,10.56-22.75,15.85-34.13c0.21-0.46,0.31-0.91,0.31-1.42c-0.01-12.47,0-24.95-0.01-37.42c0-0.56,0.11-1.08,0.34-1.59
			c4.76-10.56,9.51-21.11,14.26-31.67C93.24,28.31,93.39,28.1,93.4,27.77z M209.37,27.76c-1.22,0-2.4,0.03-3.57-0.01
			c-0.5-0.02-0.75,0.13-0.96,0.61c-4.91,10.96-9.85,21.91-14.78,32.86c-0.19,0.42-0.28,0.84-0.28,1.3c0.01,12.49,0,24.99,0.01,37.48
			c0,0.58-0.11,1.11-0.36,1.65c-5.28,11.36-10.54,22.72-15.82,34.07c-0.23,0.49-0.34,0.98-0.34,1.53c0.01,12.43,0,24.87,0.01,37.3
			c0,0.63-0.12,1.19-0.39,1.76c-0.99,2.08-1.94,4.17-2.91,6.26c-3.94,8.49-7.88,16.98-11.81,25.47c-0.09,0.18-0.24,0.36-0.18,0.63
			c1.32,0,2.64,0,3.95,0c0.18,0,0.3-0.07,0.36-0.23c0.06-0.15,0.13-0.29,0.2-0.43c5.06-10.91,10.13-21.83,15.2-32.74
			c0.21-0.46,0.31-0.91,0.31-1.42c-0.01-12.45,0-24.91-0.01-37.36c0-0.6,0.12-1.15,0.37-1.71c5.28-11.36,10.54-22.72,15.82-34.07
			c0.22-0.48,0.32-0.95,0.32-1.47c-0.01-12.45,0-24.91-0.01-37.36c0-0.58,0.11-1.12,0.35-1.65c1.39-3.08,2.77-6.17,4.16-9.25
			c3.38-7.51,6.77-15.02,10.15-22.53C209.24,28.25,209.38,28.07,209.37,27.76z M192.22,27.76c-1.25,0-2.45,0.02-3.65-0.01
			c-0.46-0.01-0.68,0.12-0.88,0.56c-4.92,10.98-9.86,21.95-14.81,32.91c-0.18,0.41-0.26,0.81-0.26,1.25
			c0.01,12.49,0,24.99,0.01,37.48c0,0.61-0.12,1.16-0.38,1.7c-5.28,11.37-10.56,22.75-15.85,34.13c-0.2,0.44-0.3,0.87-0.3,1.36
			c0.01,12.49,0,24.99,0.01,37.48c0,0.57-0.11,1.08-0.35,1.59c-0.95,2.01-1.88,4.03-2.81,6.04c-3.97,8.56-7.94,17.12-11.91,25.68
			c-0.1,0.22-0.28,0.42-0.24,0.73c1.34,0,2.65,0,3.97,0c0.18,0,0.3-0.07,0.36-0.24c0.06-0.15,0.13-0.28,0.2-0.43
			c5.06-10.91,10.12-21.83,15.19-32.74c0.21-0.46,0.3-0.91,0.3-1.42c-0.01-12.43,0-24.87-0.01-37.3c0-0.65,0.12-1.23,0.4-1.82
			c5.29-11.37,10.56-22.75,15.85-34.13c0.2-0.42,0.28-0.84,0.28-1.3c-0.01-12.43,0-24.87-0.01-37.3c0-0.69,0.13-1.31,0.41-1.93
			c4.74-10.5,9.47-21,14.19-31.51C192.05,28.32,192.19,28.1,192.22,27.76z M84.79,27.76c-1.35,0-2.67,0-3.98,0
			c-0.18,0-0.3,0.07-0.37,0.23c-0.06,0.15-0.13,0.29-0.19,0.43c-4.93,10.95-9.86,21.9-14.79,32.85c-0.17,0.39-0.24,0.77-0.24,1.19
			c0.01,12.45,0,24.91,0.01,37.36c0,0.71-0.15,1.34-0.45,1.98c-5.28,11.35-10.55,22.72-15.82,34.07c-0.18,0.38-0.26,0.76-0.26,1.19
			c0.01,12.51,0,25.03,0.01,37.54c0,0.59-0.12,1.12-0.37,1.65c-0.87,1.83-1.71,3.67-2.56,5.51c-4.06,8.76-8.12,17.51-12.18,26.27
			c-0.08,0.18-0.24,0.36-0.18,0.62c1.33,0,2.65,0,3.97,0c0.18,0,0.3-0.06,0.36-0.23c0.05-0.13,0.12-0.25,0.18-0.37
			c5.07-10.93,10.14-21.86,15.22-32.79c0.2-0.44,0.3-0.87,0.3-1.36c-0.01-12.47,0-24.95-0.01-37.42c0-0.61,0.12-1.16,0.38-1.7
			c5.28-11.37,10.56-22.75,15.84-34.13c0.2-0.44,0.3-0.87,0.3-1.36c-0.01-12.45,0-24.91-0.01-37.36c0-0.65,0.13-1.23,0.39-1.82
			c4.76-10.55,9.51-21.11,14.26-31.67C84.68,28.26,84.82,28.08,84.79,27.76z M132.2,208.67c1.36,0,2.69,0,4.03,0
			c0.15,0,0.26-0.05,0.32-0.2c0.06-0.15,0.13-0.28,0.2-0.43c5.07-10.93,10.14-21.86,15.22-32.79c0.2-0.42,0.29-0.84,0.29-1.3
			c-0.01-12.47,0-24.95-0.01-37.42c0-0.63,0.13-1.19,0.39-1.76c5.29-11.37,10.56-22.75,15.84-34.13c0.19-0.42,0.29-0.84,0.29-1.3
			c-0.01-12.45,0-24.91-0.01-37.36c0-0.64,0.12-1.23,0.39-1.82c4.77-10.57,9.53-21.15,14.28-31.73c0.09-0.19,0.23-0.37,0.19-0.65
			c-1.33,0-2.67,0-4,0c-0.18,0-0.29,0.09-0.36,0.25c-0.04,0.11-0.1,0.22-0.14,0.32c-4.95,10.99-9.89,21.98-14.85,32.96
			c-0.17,0.37-0.24,0.73-0.24,1.14c0.01,12.49,0,24.99,0.01,37.48c0,0.65-0.13,1.23-0.4,1.82c-5.29,11.37-10.56,22.75-15.85,34.13
			c-0.19,0.4-0.28,0.8-0.28,1.24c0.01,12.49,0,24.99,0.01,37.48c0,0.61-0.12,1.15-0.38,1.7c-4.9,10.55-9.8,21.11-14.69,31.67
			C132.36,208.17,132.23,208.36,132.2,208.67z M119.12,27.77c-1.35,0-2.7,0-4.05,0c-0.13,0-0.22,0.07-0.27,0.19
			c-0.07,0.16-0.15,0.32-0.22,0.48c-4.91,10.92-9.83,21.83-14.75,32.75c-0.19,0.42-0.28,0.84-0.28,1.3
			c0.01,12.47,0,24.95,0.01,37.42c0,0.63-0.12,1.19-0.38,1.76c-5.29,11.39-10.58,22.79-15.87,34.18c-0.19,0.4-0.27,0.8-0.27,1.25
			c0.01,12.45,0,24.91,0.01,37.36c0,0.69-0.14,1.3-0.43,1.93c-4.89,10.52-9.77,21.04-14.65,31.56c-0.1,0.21-0.24,0.41-0.25,0.71
			c1.35,0,2.68,0,4.01,0c0.19,0,0.29-0.09,0.35-0.25c0.05-0.13,0.12-0.25,0.18-0.37c5.08-10.95,10.16-21.9,15.24-32.85
			c0.19-0.4,0.27-0.8,0.27-1.25c-0.01-12.47,0-24.95-0.01-37.42c0-0.63,0.12-1.19,0.38-1.76c5.29-11.39,10.58-22.79,15.87-34.18
			c0.19-0.4,0.27-0.8,0.27-1.25c-0.01-12.49,0-24.99-0.01-37.48c0-0.52,0.06-1.01,0.28-1.49c1.43-3.15,2.84-6.31,4.26-9.47
			c3.38-7.51,6.77-15.02,10.15-22.53C119.04,28.2,119.17,28.04,119.12,27.77z M250.75,208.67c-0.13-0.97-36.92-168.55-38.71-176.34
			c-0.03-0.11-0.06-0.23-0.1-0.34c-0.01-0.02-0.02-0.04-0.03-0.05c-0.07-0.03-0.01,0.08-0.06-0.01c-0.06,0.12-0.11,0.22-0.16,0.32
			c-0.81,1.79-1.59,3.6-2.44,5.37c-0.34,0.7-0.38,1.34-0.21,2.09c1.74,7.81,3.45,15.62,5.16,23.43c1.71,7.79,3.43,15.59,5.14,23.38
			c1.67,7.62,3.34,15.24,5.02,22.86c1.75,7.97,3.5,15.93,5.25,23.9c1.71,7.79,3.42,15.59,5.13,23.38
			c1.71,7.79,3.43,15.59,5.14,23.38c1.59,7.26,3.18,14.51,4.78,21.77c0.47,2.13,0.94,4.26,1.41,6.39c0.1,0.46,0.11,0.47,0.57,0.47
			c0.59,0,1.18,0,1.77,0C249.17,208.67,249.93,208.67,250.75,208.67z M206.15,44.72c-0.15,0.09-0.18,0.23-0.23,0.35
			c-0.98,2.17-1.95,4.34-2.94,6.5c-0.14,0.31-0.13,0.59-0.06,0.91c0.42,1.86,0.83,3.72,1.24,5.58c1.79,8.06,3.57,16.11,5.36,24.17
			c1.87,8.44,3.75,16.88,5.62,25.32c1.71,7.69,3.41,15.39,5.12,23.08c1.67,7.54,3.35,15.08,5.02,22.62
			c1.79,8.08,3.58,16.15,5.37,24.23c1.71,7.71,3.42,15.42,5.14,23.13c0.56,2.51,1.11,5.03,1.67,7.54c0.11,0.51,0.11,0.51,0.66,0.51
			c1.04,0,2.09,0,3.13,0c0.22,0,0.43-0.01,0.65,0c0.25,0.01,0.31-0.12,0.25-0.33c-0.03-0.09-0.05-0.19-0.07-0.29
			c-1.68-7.64-3.35-15.28-5.03-22.92c-1.75-7.96-3.5-15.93-5.25-23.89c-1.95-8.87-3.89-17.73-5.84-26.6
			c-1.91-8.67-3.82-17.35-5.72-26.02c-2.3-10.48-4.6-20.96-6.9-31.44c-2.28-10.36-4.55-20.73-6.83-31.09
			C206.4,45.63,206.36,45.16,206.15,44.72z M200.21,58.07c-0.05,0-0.1,0-0.15,0c-0.54,1.2-1.08,2.4-1.62,3.6
			c-0.09,0.19-0.07,0.39-0.07,0.58c0,2.16,0,4.33,0,6.49c0,0.28,0.03,0.55,0.09,0.82c1.45,6.6,2.9,13.2,4.35,19.81
			c1.71,7.79,3.42,15.59,5.13,23.38c1.67,7.62,3.35,15.24,5.02,22.86c1.63,7.43,3.26,14.86,4.89,22.28
			c1.63,7.45,3.27,14.89,4.9,22.34c1.48,6.74,2.96,13.47,4.43,20.21c0.56,2.55,1.12,5.11,1.68,7.66c0.12,0.57,0.13,0.57,0.73,0.57
			c1.12,0,2.24,0,3.36,0c0.19,0,0.39,0.04,0.64-0.1C222.47,158.42,211.34,108.24,200.21,58.07z M198.49,87.72
			c-0.04,0-0.08,0.01-0.12,0.01c0,0.22,0,0.43,0,0.65c0,3.4-0.05,6.81,0.02,10.21c0.03,1.54-0.17,2.97-0.97,4.29
			c-0.19,0.32-0.2,0.65-0.12,1.01c1.56,7.02,3.1,14.05,4.65,21.07c1.76,7.96,3.51,15.93,5.27,23.89c1.68,7.6,3.35,15.2,5.03,22.8
			c1.59,7.24,3.18,14.47,4.78,21.71c1.09,4.93,2.18,9.86,3.27,14.79c0.11,0.51,0.12,0.51,0.65,0.51c1.18,0,2.36,0,3.54,0
			c0.17,0,0.35,0.06,0.52-0.11C216.18,168.29,207.34,128,198.49,87.72z M109.97,58.02c-0.04,0-0.08,0-0.12,0.01
			c-0.54,1.2-1.08,2.4-1.62,3.6c-0.09,0.21-0.08,0.42-0.08,0.64c0,2.14,0,4.29,0,6.43c0,0.3,0.02,0.59,0.08,0.88
			c1.63,7.33,3.26,14.65,4.88,21.98c3.23,14.56,6.46,29.12,9.68,43.68c3.17,14.29,6.33,28.59,9.5,42.88
			c0.11,0.5,0.17,1.02,0.39,1.55c0.08-0.12,0.13-0.18,0.16-0.25c0.71-1.51,1.41-3.03,2.11-4.54c0.1-0.22,0.13-0.45,0.13-0.69
			c0-1.22-0.01-2.44,0-3.66c0-0.38-0.04-0.74-0.12-1.11c-1.86-8.3-3.73-16.6-5.59-24.91c-1.99-8.86-3.98-17.71-5.96-26.57
			c-2.03-9.03-4.05-18.06-6.07-27.09c-2.31-10.3-4.62-20.59-6.93-30.89C110.27,59.32,110.12,58.67,109.97,58.02z M134.97,151.77
			c0.04,0,0.08,0,0.12,0c0-0.22,0-0.43,0-0.65c0-4.74,0.01-9.48-0.01-14.22c0-0.89,0.09-1.72,0.55-2.49c0.17-0.29,0.17-0.57,0.1-0.9
			c-2.1-9.4-4.19-18.8-6.28-28.2c-2.3-10.36-4.6-20.72-6.9-31.08c-2.04-9.17-4.08-18.34-6.12-27.51c-0.15-0.68-0.31-1.37-0.47-2.07
			c-0.21,0.13-0.24,0.32-0.31,0.47c-0.96,2.11-1.9,4.23-2.86,6.34c-0.16,0.34-0.18,0.66-0.1,1.02c1.63,7.25,3.26,14.49,4.89,21.74
			c1.79,7.96,3.57,15.91,5.35,23.87c1.91,8.51,3.81,17.03,5.72,25.54c1.87,8.36,3.75,16.72,5.63,25.08
			C134.51,149.74,134.74,150.76,134.97,151.77z M194.55,109.27c-0.11,0.11-0.15,0.13-0.16,0.17c-0.92,1.98-1.84,3.96-2.76,5.93
			c-0.1,0.21-0.09,0.4-0.04,0.63c0.83,3.76,1.64,7.53,2.46,11.29c1.79,8.2,3.58,16.39,5.37,24.59c1.84,8.41,3.67,16.82,5.51,25.22
			c1.63,7.45,3.25,14.9,4.88,22.35c0.64,2.92,1.27,5.84,1.91,8.75c0.1,0.46,0.1,0.46,0.58,0.46c0.96,0,1.93,0,2.89,0
			c0.31,0,0.63-0.01,0.94,0c0.24,0,0.32-0.1,0.25-0.33c-0.03-0.11-0.05-0.23-0.08-0.35c-1.55-7.04-3.1-14.08-4.66-21.13
			c-1.71-7.75-3.42-15.5-5.13-23.26c-1.87-8.48-3.73-16.96-5.6-25.45c-1.83-8.31-3.67-16.62-5.5-24.93
			C195.14,111.94,194.86,110.64,194.55,109.27z M108.24,87.47c-0.12,0.35-0.09,0.59-0.09,0.81c0,3.48,0.01,6.96,0,10.45
			c-0.01,2.56,0.16,1.72-0.86,3.95c-0.14,0.3-0.17,0.57-0.09,0.9c0.92,4.08,1.82,8.17,2.73,12.26c2.66,11.99,5.31,23.98,7.97,35.97
			c2.87,12.93,5.74,25.86,8.61,38.79c0.11,0.5,0.18,1.02,0.37,1.51c0.13-0.08,0.17-0.17,0.21-0.26c0.92-1.98,1.83-3.96,2.76-5.93
			c0.14-0.3,0.1-0.57,0.04-0.85c-1.7-7.67-3.4-15.35-5.1-23.02c-1.8-8.1-3.59-16.19-5.38-24.29c-1.75-7.88-3.49-15.77-5.24-23.65
			c-1.76-7.92-3.51-15.85-5.27-23.77C108.68,89.42,108.48,88.5,108.24,87.47z M104.46,109.09c-0.04,0-0.09,0-0.13,0
			c-0.09,0.19-0.19,0.39-0.28,0.58c-0.84,1.82-1.67,3.64-2.54,5.45c-0.22,0.45-0.27,0.86-0.16,1.35c1.9,8.49,3.79,16.99,5.68,25.49
			c2.42,10.89,4.85,21.79,7.27,32.68c2.18,9.82,4.36,19.64,6.55,29.46c0.04,0.2,0.05,0.42,0.18,0.61c0.22-0.16,0.26-0.38,0.35-0.57
			c0.71-1.51,1.41-3.03,2.11-4.54c0.24-0.52,0.6-1.03,0.65-1.57c0.06-0.54-0.19-1.11-0.31-1.67c-1.87-8.42-3.74-16.84-5.61-25.26
			c-2.06-9.3-4.12-18.61-6.19-27.91c-2.35-10.61-4.71-21.21-7.06-31.82C104.81,110.61,104.63,109.85,104.46,109.09z M121.73,31.94
			c-0.16,0.02-0.18,0.1-0.21,0.17c-0.94,2.08-1.87,4.16-2.81,6.24c-0.1,0.21-0.1,0.4-0.04,0.62c0.28,1.21,0.54,2.42,0.81,3.63
			c1.82,8.21,3.65,16.42,5.48,24.63c1.75,7.88,3.5,15.77,5.26,23.65c1.63,7.35,3.27,14.69,4.9,22.04c1.09,4.91,2.19,9.82,3.28,14.73
			c0.03,0.12-0.02,0.29,0.19,0.34c0.05-0.08,0.1-0.16,0.14-0.24c0.89-1.93,1.78-3.85,2.69-5.78c0.13-0.28,0.11-0.53,0.05-0.8
			c-0.6-2.71-1.2-5.41-1.8-8.12c-1.83-8.29-3.67-16.58-5.5-24.87c-1.71-7.75-3.42-15.51-5.14-23.26c-1.79-8.1-3.58-16.2-5.37-24.29
			C123.01,37.74,122.37,34.85,121.73,31.94z"/>
	</g>
</g>
<g>
	<path d="M28.27,230.19h12.78l3.06,10.28h0.06l2.98-10.28h12.7v19.89h-9.44v-10.61h-0.06l-3.48,10.61H41.3l-3.54-10.61h-0.06v10.61
		h-9.44V230.19z"/>
	<path d="M63.1,239.58c0-7.8,6.49-9.97,13.73-9.97s13.73,2.17,13.73,9.97c0,4.57-1.03,11.09-13.73,11.09
		C64.13,250.67,63.1,244.15,63.1,239.58z M80.23,240.39c0-2.53-0.89-4.2-3.4-4.2c-2.51,0-3.4,1.67-3.4,4.2
		c0,2.54,0.89,4.21,3.4,4.21C79.34,244.6,80.23,242.92,80.23,240.39z"/>
	<path d="M93.81,230.19h10.08l5.76,8.3h0.06v-8.3h9.44v19.89h-8.86l-6.99-9.02h-0.06v9.02h-9.44V230.19z"/>
	<path d="M128.03,238.02h-5.91v-7.83h21.86v7.83h-5.9v12.06h-10.05V238.02z"/>
	<path d="M168.96,238.41c-2.15-0.64-5.18-0.75-7.16-0.75c-3.45,0-5.32,0.42-5.32,3.31c0,2.62,2.23,2.87,4.34,2.87
		c2.65,0,4.76-0.28,8.05-0.92v6.66c-2.45,0.59-6.38,1.09-10.03,1.09c-7.77,0-12.95-2.73-12.95-10.86c0-7.63,5.82-10.19,12.95-10.19
		c3.65,0,6.85,0.42,10.11,0.98V238.41z"/>
	<path d="M176.99,230.19h15.93l6.41,19.89h-10.39l-0.64-2.54h-6.66l-0.75,2.54h-10.25L176.99,230.19z M184.96,234.82h-0.08
		l-2.09,7.27h4.32L184.96,234.82z"/>
	<path d="M201.24,230.19h10.05v13.06h8.66v6.82h-18.72V230.19z"/>
	<path d="M223.45,230.19h12.78l3.06,10.28h0.06l2.98-10.28h12.7v19.89h-9.44v-10.61h-0.06l-3.48,10.61h-5.57l-3.54-10.61h-0.06
		v10.61h-9.44V230.19z"/>
</g>
</svg>
