<svg xmlns="http://www.w3.org/2000/svg" xmlns:xlink="http://www.w3.org/1999/xlink" version="1.1" fill="#FFF" xml:space="preserve" width="227" height="189"><rect id="backgroundrect" width="100%" height="100%" x="0" y="0" fill="none" stroke="none"/>


<g class="currentLayer" style=""><title>Layer 1</title><g id="BHG3LJ_1_" class="">
	<g id="svg_1">
		<path d="M140.8400016784668,6.103515630684342e-7 c14.64,0 29.28,0 43.91,0 c0.79,0.29000000000000004 1.32,0.79 1.51,1.6500000000000001 c0.51,2.38 1.03,4.76 1.55,7.14 c1.83,8.33 3.66,16.66 5.49,24.99 c1.9100000000000001,8.67 3.8200000000000003,17.35 5.73,26.02 c2.14,9.75 4.28,19.5 6.42,29.25 c2.46,11.19 4.93,22.38 7.39,33.56 c2.07,9.4 4.13,18.81 6.19,28.21 c2.43,11.07 4.87,22.15 7.3,33.22 c0.15000000000000002,0.6700000000000002 0.30000000000000004,1.33 0.45,2 c0,0.43000000000000005 0,0.8700000000000001 0,1.3 c-0.25,0.6400000000000001 -0.7000000000000001,1.06 -1.37,1.26 c-0.27,0.08000000000000002 -0.55,0.07 -0.8200000000000001,0.07 c-14.07,0 -28.13,0 -42.2,0 c-0.14,0 -0.28,0 -0.41000000000000003,0 c-0.8500000000000001,-0.04000000000000001 -1.59,-0.6200000000000001 -1.82,-1.44 c-0.07,-0.26 -0.11000000000000001,-0.54 -0.17,-0.81 c-2.22,-10.16 -4.44,-20.31 -6.66,-30.47 c-2.15,-9.83 -4.29,-19.66 -6.43,-29.49 c-2.04,-9.33 -4.07,-18.66 -6.12,-27.99 c-0.05000000000000001,-0.24000000000000002 -0.05000000000000001,-0.5 -0.21000000000000002,-0.7200000000000001 c-0.22000000000000003,0.15000000000000002 -0.26,0.37000000000000005 -0.3400000000000001,0.56 c-2.11,4.55 -4.22,9.1 -6.34,13.64 c-0.2,0.42000000000000004 -0.28,0.8400000000000001 -0.28,1.3 c0.010000000000000002,12.45 0,24.91 0.010000000000000002,37.36 c0,0.6500000000000001 -0.12000000000000001,1.23 -0.39000000000000007,1.82 c-1.25,2.6500000000000004 -2.48,5.3100000000000005 -3.71,7.97 c-4.13,8.9 -8.27,17.79 -12.37,26.7 c-0.51,1.11 -1.25,1.59 -2.47,1.58 c-7.77,-0.030000000000000006 -15.54,-0.010000000000000002 -23.31,-0.010000000000000002 c-6.3,0 -12.59,0 -18.89,0 c-0.27,0 -0.55,0.020000000000000004 -0.8200000000000001,-0.06000000000000001 c-0.92,-0.26 -1.36,-0.91 -1.56,-1.81 c-2.12,-9.58 -4.25,-19.15 -6.38,-28.72 c-2.18,-9.82 -4.36,-19.65 -6.54,-29.47 c-2.08,-9.34 -4.15,-18.69 -6.23,-28.03 c-0.2,-0.91 -0.41000000000000003,-1.82 -0.6200000000000001,-2.7600000000000002 c-0.24000000000000002,0.14 -0.27,0.35000000000000003 -0.3400000000000001,0.51 c-2.08,4.47 -4.15,8.95 -6.24,13.42 c-0.25,0.53 -0.35000000000000003,1.06 -0.35000000000000003,1.6400000000000001 c0.010000000000000002,12.43 0.010000000000000002,24.87 0.010000000000000002,37.3 c0,0.5 -0.06000000000000001,0.97 -0.27,1.4300000000000002 C57.65000167846679,163.91000061035157 52.20000167846679,175.68000061035156 46.7400016784668,187.45000061035157 c-0.29000000000000004,0.6200000000000001 -0.7500000000000001,0.99 -1.3900000000000001,1.17 c-0.25,0.07 -0.51,0.05000000000000001 -0.7600000000000001,0.05000000000000001 c-14.07,0 -28.13,0 -42.2,0 c-0.1,0 -0.2,0 -0.30000000000000004,0 c-0.81,-0.030000000000000006 -1.4300000000000002,-0.38000000000000006 -1.81,-1.11 c-0.08000000000000002,-0.16000000000000003 -0.16000000000000003,-0.32000000000000006 -0.28,-0.45 c0,-0.28 0,-0.55 0,-0.8300000000000001 c0.31000000000000005,-0.30000000000000004 0.41000000000000003,-0.7100000000000001 0.5800000000000001,-1.08 c5.24,-11.28 10.47,-22.57 15.72,-33.85 c0.21000000000000002,-0.46 0.31000000000000005,-0.91 0.31000000000000005,-1.42 c-0.010000000000000002,-12.45 0,-24.9 -0.010000000000000002,-37.35 c0,-0.6000000000000001 0.11000000000000001,-1.15 0.37000000000000005,-1.7000000000000002 c5.28,-11.35 10.54,-22.71 15.82,-34.06 c0.22000000000000003,-0.48000000000000004 0.32000000000000006,-0.9500000000000001 0.32000000000000006,-1.47 c-0.010000000000000002,-12.41 0,-24.82 -0.010000000000000002,-37.23 c0,-0.6600000000000001 0.12000000000000001,-1.27 0.4,-1.8800000000000001 c5.2,-11.52 10.38,-23.04 15.55,-34.57 c0.35000000000000003,-0.78 0.7600000000000001,-1.4100000000000001 1.61,-1.6600000000000001 c14.64,0 29.28,0 43.91,0 c0.2,0.11000000000000001 0.41000000000000003,0.21000000000000002 0.6000000000000001,0.33000000000000007 c0.6000000000000001,0.38000000000000006 0.78,1 0.92,1.6400000000000001 c1.05,4.76 2.1,9.52 3.15,14.27 c1.7000000000000002,7.71 3.41,15.42 5.11,23.14 c1.83,8.29 3.66,16.58 5.49,24.86 c1.99,9 3.98,17.99 5.97,26.99 c0.04000000000000001,0.18000000000000002 0.06000000000000001,0.37000000000000005 0.18000000000000002,0.55 c0.19000000000000003,-0.13 0.23,-0.3400000000000001 0.31000000000000005,-0.51 c2.26,-4.87 4.51,-9.73 6.78,-14.6 c0.19000000000000003,-0.4 0.28,-0.8 0.28,-1.24 c-0.010000000000000002,-12.45 0,-24.9 -0.010000000000000002,-37.35 c0,-0.6900000000000002 0.13,-1.31 0.42000000000000004,-1.9300000000000002 c5.17,-11.46 10.34,-22.93 15.48,-34.41 C139.5800016784668,0.9600006103515639 139.9800016784668,0.2900006103515622 140.8400016784668,6.103515630684342e-7 zM73.7700016784668,3.940000610351561 c-0.26,-0.09000000000000002 -0.46,-0.06000000000000001 -0.6500000000000001,-0.06000000000000001 c-1,0 -2.01,0.030000000000000006 -3.01,-0.010000000000000002 c-0.49000000000000005,-0.020000000000000004 -0.7200000000000001,0.15000000000000002 -0.92,0.5900000000000001 c-4.91,10.94 -9.83,21.87 -14.76,32.81 c-0.21000000000000002,0.46 -0.30000000000000004,0.91 -0.30000000000000004,1.42 c0.010000000000000002,12.45 0,24.91 0.010000000000000002,37.36 c0,0.6200000000000001 -0.12000000000000001,1.19 -0.39000000000000007,1.7600000000000002 c-5.28,11.36 -10.54,22.72 -15.82,34.07 c-0.2,0.44000000000000006 -0.30000000000000004,0.8700000000000001 -0.30000000000000004,1.36 c0.010000000000000002,12.49 0.010000000000000002,24.99 0.010000000000000002,37.48 c0,0.5700000000000001 -0.11000000000000001,1.08 -0.35000000000000003,1.59 c-1,2.14 -1.99,4.28 -2.98,6.42 c-3.92,8.45 -7.84,16.9 -11.76,25.36 c-0.1,0.21000000000000002 -0.26,0.4 -0.22000000000000003,0.6500000000000001 c0.2,0.09000000000000002 0.4,0.05000000000000001 0.5900000000000001,0.05000000000000001 c1,0 2.01,-0.020000000000000004 3.01,0.010000000000000002 c0.46,0.020000000000000004 0.6800000000000002,-0.14 0.8800000000000001,-0.56 c5.08,-10.99 10.18,-21.98 15.28,-32.96 c0.19000000000000003,-0.4 0.27,-0.8 0.27,-1.25 c-0.010000000000000002,-12.49 0,-24.99 -0.010000000000000002,-37.48 c0,-0.5800000000000001 0.11000000000000001,-1.11 0.36000000000000004,-1.6500000000000001 c5.28,-11.36 10.54,-22.72 15.82,-34.07 c0.23,-0.5 0.3400000000000001,-0.98 0.3400000000000001,-1.53 c-0.010000000000000002,-12.41 0,-24.83 -0.010000000000000002,-37.24 c0,-0.6400000000000001 0.12000000000000001,-1.23 0.38000000000000006,-1.82 c4.76,-10.55 9.51,-21.11 14.26,-31.67 C73.59000167846679,4.370000610351564 73.6700016784668,4.170000610351561 73.7700016784668,3.940000610351561 zM95.3900016784668,184.73000061035157 c0.19000000000000003,0.09000000000000002 0.39000000000000007,0.05000000000000001 0.5800000000000001,0.05000000000000001 c1,0 2.01,-0.030000000000000006 3.01,0.010000000000000002 c0.49000000000000005,0.020000000000000004 0.7100000000000001,-0.16000000000000003 0.91,-0.6000000000000001 c5.07,-10.96 10.15,-21.9 15.23,-32.85 c0.2,-0.44000000000000006 0.30000000000000004,-0.8700000000000001 0.30000000000000004,-1.36 c-0.010000000000000002,-12.45 0,-24.91 -0.010000000000000002,-37.36 c0,-0.6500000000000001 0.13,-1.23 0.4,-1.82 c5.26,-11.32 10.51,-22.64 15.77,-33.96 c0.22000000000000003,-0.48000000000000004 0.33000000000000007,-0.9400000000000001 0.33000000000000007,-1.47 c-0.010000000000000002,-12.43 -0.010000000000000002,-24.87 -0.010000000000000002,-37.3 c0,-0.6400000000000001 0.13,-1.23 0.39000000000000007,-1.82 c4.76,-10.55 9.51,-21.11 14.26,-31.67 c0.09000000000000002,-0.21000000000000002 0.24000000000000002,-0.4 0.22000000000000003,-0.6500000000000001 c-0.2,-0.08000000000000002 -0.4,-0.05000000000000001 -0.6000000000000001,-0.05000000000000001 c-1,0 -2.01,0.020000000000000004 -3.01,-0.010000000000000002 c-0.48000000000000004,-0.020000000000000004 -0.7200000000000001,0.13 -0.92,0.5800000000000001 c-4.91,10.96 -9.84,21.91 -14.78,32.86 c-0.2,0.44000000000000006 -0.29000000000000004,0.8800000000000001 -0.29000000000000004,1.36 c0.010000000000000002,12.47 0,24.95 0.010000000000000002,37.42 c0,0.6000000000000001 -0.12000000000000001,1.15 -0.38000000000000006,1.7000000000000002 c-5.27,11.34 -10.53,22.68 -15.79,34.02 c-0.23,0.5 -0.33000000000000007,0.99 -0.33000000000000007,1.53 c0.010000000000000002,12.43 0.010000000000000002,24.87 0.010000000000000002,37.3 c0,0.54 -0.06000000000000001,1.05 -0.30000000000000004,1.55 c-1.6400000000000001,3.5300000000000002 -3.27,7.06 -4.91,10.59 c-3.3200000000000003,7.15 -6.640000000000001,14.3 -9.96,21.45 C95.4600016784668,184.38000061035157 95.3300016784668,184.53000061035155 95.3900016784668,184.73000061035157 zM121.12000167846679,184.78000061035155 c1.23,0 2.41,-0.020000000000000004 3.59,0.010000000000000002 c0.47000000000000003,0.010000000000000002 0.7200000000000001,-0.12000000000000001 0.93,-0.5800000000000001 c5.07,-10.97 10.16,-21.94 15.25,-32.9 c0.2,-0.42000000000000004 0.29000000000000004,-0.8300000000000001 0.29000000000000004,-1.3 c-0.010000000000000002,-12.43 0,-24.87 -0.020000000000000004,-37.3 c0,-0.7100000000000001 0.14,-1.34 0.44000000000000006,-1.98 c5.26,-11.3 10.5,-22.61 15.75,-33.91 c0.22000000000000003,-0.48000000000000004 0.33000000000000007,-0.9400000000000001 0.33000000000000007,-1.47 c-0.010000000000000002,-12.43 -0.010000000000000002,-24.87 -0.010000000000000002,-37.3 c0,-0.6400000000000001 0.13,-1.23 0.39000000000000007,-1.82 c4.75,-10.54 9.49,-21.08 14.24,-31.62 c0.09000000000000002,-0.21000000000000002 0.23,-0.41000000000000003 0.25,-0.6400000000000001 c-0.04000000000000001,-0.030000000000000006 -0.08000000000000002,-0.07 -0.11000000000000001,-0.07 c-1.3,-0.010000000000000002 -2.6,-0.010000000000000002 -3.89,-0.020000000000000004 c-0.22000000000000003,0 -0.32000000000000006,0.1 -0.39000000000000007,0.28 c-0.05000000000000001,0.13 -0.11000000000000001,0.25 -0.17,0.38000000000000006 c-4.91,10.92 -9.83,21.83 -14.75,32.74 c-0.2,0.44000000000000006 -0.29000000000000004,0.8800000000000001 -0.29000000000000004,1.36 c0.010000000000000002,12.45 0,24.91 0.010000000000000002,37.36 c0,0.6500000000000001 -0.13,1.23 -0.4,1.82 c-5.27,11.34 -10.53,22.68 -15.79,34.02 c-0.21000000000000002,0.46 -0.32000000000000006,0.91 -0.32000000000000006,1.4100000000000001 c0.010000000000000002,12.45 0.010000000000000002,24.91 0.010000000000000002,37.36 c0,0.6300000000000001 -0.12000000000000001,1.2 -0.38000000000000006,1.7600000000000002 c-4.9,10.55 -9.8,21.11 -14.7,31.67 C121.28000167846679,184.25000061035155 121.1400016784668,184.45000061035157 121.12000167846679,184.78000061035155 zM30.9100016784668,184.78000061035155 c1.33,0 2.66,0 4,0 c0.15000000000000002,0 0.26,-0.06000000000000001 0.32000000000000006,-0.21000000000000002 c0.06000000000000001,-0.15000000000000002 0.13,-0.28 0.2,-0.43000000000000005 c5.06,-10.91 10.12,-21.83 15.19,-32.74 c0.21000000000000002,-0.46 0.31000000000000005,-0.91 0.31000000000000005,-1.42 c-0.010000000000000002,-12.45 -0.010000000000000002,-24.91 -0.010000000000000002,-37.36 c0,-0.6200000000000001 0.13,-1.19 0.39000000000000007,-1.7600000000000002 c5.28,-11.36 10.54,-22.72 15.82,-34.07 c0.21000000000000002,-0.46 0.31000000000000005,-0.91 0.31000000000000005,-1.42 c-0.010000000000000002,-12.43 0,-24.87 -0.010000000000000002,-37.3 c0,-0.6500000000000001 0.12000000000000001,-1.23 0.39000000000000007,-1.82 c4.77,-10.57 9.53,-21.15 14.28,-31.73 c0.09000000000000002,-0.19000000000000003 0.23,-0.37000000000000005 0.2,-0.6000000000000001 c-0.19000000000000003,-0.09000000000000002 -0.39000000000000007,-0.05000000000000001 -0.5800000000000001,-0.05000000000000001 c-1,0 -2.01,0.020000000000000004 -3.01,-0.010000000000000002 c-0.47000000000000003,-0.020000000000000004 -0.7200000000000001,0.12000000000000001 -0.92,0.5800000000000001 c-4.93,11 -9.88,21.98 -14.83,32.97 c-0.17,0.37000000000000005 -0.24000000000000002,0.7300000000000001 -0.24000000000000002,1.1400000000000001 c0.010000000000000002,12.47 0,24.95 0.010000000000000002,37.42 c0,0.6900000000000002 -0.13,1.31 -0.42000000000000004,1.9300000000000002 c-5.27,11.34 -10.53,22.68 -15.8,34.02 c-0.2,0.44000000000000006 -0.30000000000000004,0.8700000000000001 -0.30000000000000004,1.36 c0.010000000000000002,12.45 0,24.91 0.010000000000000002,37.36 c0,0.6500000000000001 -0.13,1.23 -0.4,1.82 c-4.91,10.55 -9.8,21.11 -14.7,31.67 C31.020001678466798,184.31000061035155 30.880001678466797,184.49000061035156 30.9100016784668,184.78000061035155 zM65.1400016784668,3.880000610351562 c-1.36,0 -2.71,0 -4.07,0 c-0.16000000000000003,0 -0.25,0.09000000000000002 -0.30000000000000004,0.23 c-0.05000000000000001,0.13 -0.12000000000000001,0.25 -0.17,0.38000000000000006 c-4.92,10.93 -9.84,21.87 -14.77,32.8 c-0.19000000000000003,0.42000000000000004 -0.28,0.8400000000000001 -0.28,1.3 c0.010000000000000002,12.47 0,24.95 0.010000000000000002,37.42 c0,0.6300000000000001 -0.12000000000000001,1.2 -0.38000000000000006,1.7600000000000002 c-5.29,11.39 -10.58,22.79 -15.870000000000001,34.18 c-0.19000000000000003,0.4 -0.27,0.8 -0.27,1.25 c0.010000000000000002,12.47 0,24.95 0.010000000000000002,37.42 c0,0.6500000000000001 -0.13,1.23 -0.4,1.82 c-4.9,10.54 -9.79,21.08 -14.67,31.62 c-0.1,0.21000000000000002 -0.24000000000000002,0.41000000000000003 -0.25,0.6700000000000002 c0.19000000000000003,0.08000000000000002 0.39000000000000007,0.05000000000000001 0.5800000000000001,0.05000000000000001 c1,0 2.01,-0.020000000000000004 3.01,0.010000000000000002 c0.47000000000000003,0.020000000000000004 0.8,-0.09000000000000002 0.92,-0.5800000000000001 c0.010000000000000002,-0.04000000000000001 0.04000000000000001,-0.07 0.05000000000000001,-0.11000000000000001 c5.07,-10.93 10.14,-21.86 15.22,-32.79 c0.19000000000000003,-0.4 0.28,-0.8 0.28,-1.24 c-0.010000000000000002,-12.49 0,-24.99 -0.010000000000000002,-37.48 c0,-0.6100000000000001 0.12000000000000001,-1.15 0.38000000000000006,-1.7000000000000002 c5.28,-11.37 10.56,-22.75 15.85,-34.13 c0.21000000000000002,-0.46 0.31000000000000005,-0.91 0.31000000000000005,-1.42 c-0.010000000000000002,-12.47 0,-24.95 -0.010000000000000002,-37.42 c0,-0.56 0.11000000000000001,-1.08 0.3400000000000001,-1.59 c4.76,-10.56 9.51,-21.11 14.26,-31.67 C64.98000167846679,4.420000610351561 65.1300016784668,4.210000610351564 65.1400016784668,3.880000610351562 zM181.1100016784668,3.870000610351564 c-1.22,0 -2.4,0.030000000000000006 -3.5700000000000003,-0.010000000000000002 c-0.5,-0.020000000000000004 -0.7500000000000001,0.13 -0.9600000000000001,0.6100000000000001 c-4.91,10.96 -9.85,21.91 -14.78,32.86 c-0.19000000000000003,0.42000000000000004 -0.28,0.8400000000000001 -0.28,1.3 c0.010000000000000002,12.49 0,24.99 0.010000000000000002,37.48 c0,0.5800000000000001 -0.11000000000000001,1.11 -0.36000000000000004,1.6500000000000001 c-5.28,11.36 -10.54,22.72 -15.82,34.07 c-0.23,0.49000000000000005 -0.3400000000000001,0.98 -0.3400000000000001,1.53 c0.010000000000000002,12.43 0,24.87 0.010000000000000002,37.3 c0,0.6300000000000001 -0.12000000000000001,1.19 -0.39000000000000007,1.7600000000000002 c-0.99,2.08 -1.94,4.17 -2.91,6.26 c-3.94,8.49 -7.88,16.98 -11.81,25.47 c-0.09000000000000002,0.18000000000000002 -0.24000000000000002,0.36000000000000004 -0.18000000000000002,0.6300000000000001 c1.32,0 2.64,0 3.95,0 c0.18000000000000002,0 0.30000000000000004,-0.07 0.36000000000000004,-0.23 c0.06000000000000001,-0.15000000000000002 0.13,-0.29000000000000004 0.2,-0.43000000000000005 c5.06,-10.91 10.13,-21.83 15.2,-32.74 c0.21000000000000002,-0.46 0.31000000000000005,-0.91 0.31000000000000005,-1.42 c-0.010000000000000002,-12.45 0,-24.91 -0.010000000000000002,-37.36 c0,-0.6000000000000001 0.12000000000000001,-1.15 0.37000000000000005,-1.71 c5.28,-11.36 10.54,-22.72 15.82,-34.07 c0.22000000000000003,-0.48000000000000004 0.32000000000000006,-0.9500000000000001 0.32000000000000006,-1.47 c-0.010000000000000002,-12.45 0,-24.91 -0.010000000000000002,-37.36 c0,-0.5800000000000001 0.11000000000000001,-1.12 0.35000000000000003,-1.6500000000000001 c1.3900000000000001,-3.08 2.77,-6.17 4.16,-9.25 c3.38,-7.51 6.77,-15.02 10.15,-22.53 C180.9800016784668,4.3600006103515625 181.1200016784668,4.180000610351563 181.1100016784668,3.870000610351564 zM163.9600016784668,3.870000610351564 c-1.25,0 -2.45,0.020000000000000004 -3.6500000000000004,-0.010000000000000002 c-0.46,-0.010000000000000002 -0.6800000000000002,0.12000000000000001 -0.8800000000000001,0.56 c-4.92,10.98 -9.86,21.95 -14.81,32.91 c-0.18000000000000002,0.41000000000000003 -0.26,0.81 -0.26,1.25 c0.010000000000000002,12.49 0,24.99 0.010000000000000002,37.48 c0,0.6100000000000001 -0.12000000000000001,1.1600000000000001 -0.38000000000000006,1.7000000000000002 c-5.28,11.37 -10.56,22.75 -15.85,34.13 c-0.2,0.44000000000000006 -0.30000000000000004,0.8700000000000001 -0.30000000000000004,1.36 c0.010000000000000002,12.49 0,24.99 0.010000000000000002,37.48 c0,0.5700000000000001 -0.11000000000000001,1.08 -0.35000000000000003,1.59 c-0.9500000000000001,2.01 -1.8800000000000001,4.03 -2.81,6.04 c-3.9699999999999998,8.56 -7.94,17.12 -11.91,25.68 c-0.1,0.22000000000000003 -0.28,0.42000000000000004 -0.24000000000000002,0.7300000000000001 c1.34,0 2.6500000000000004,0 3.9699999999999998,0 c0.18000000000000002,0 0.30000000000000004,-0.07 0.36000000000000004,-0.24000000000000002 c0.06000000000000001,-0.15000000000000002 0.13,-0.28 0.2,-0.43000000000000005 c5.06,-10.91 10.12,-21.83 15.19,-32.74 c0.21000000000000002,-0.46 0.30000000000000004,-0.91 0.30000000000000004,-1.42 c-0.010000000000000002,-12.43 0,-24.87 -0.010000000000000002,-37.3 c0,-0.6500000000000001 0.12000000000000001,-1.23 0.4,-1.82 c5.29,-11.37 10.56,-22.75 15.85,-34.13 c0.2,-0.42000000000000004 0.28,-0.8400000000000001 0.28,-1.3 c-0.010000000000000002,-12.43 0,-24.87 -0.010000000000000002,-37.3 c0,-0.6900000000000002 0.13,-1.31 0.41000000000000003,-1.9300000000000002 c4.74,-10.5 9.47,-21 14.19,-31.51 C163.7900016784668,4.430000610351563 163.9300016784668,4.210000610351564 163.9600016784668,3.870000610351564 zM56.5300016784668,3.870000610351564 c-1.35,0 -2.67,0 -3.98,0 c-0.18000000000000002,0 -0.30000000000000004,0.07 -0.37000000000000005,0.23 c-0.06000000000000001,0.15000000000000002 -0.13,0.29000000000000004 -0.19000000000000003,0.43000000000000005 c-4.93,10.95 -9.86,21.9 -14.79,32.85 c-0.17,0.39000000000000007 -0.24000000000000002,0.77 -0.24000000000000002,1.19 c0.010000000000000002,12.45 0,24.91 0.010000000000000002,37.36 c0,0.7100000000000001 -0.15000000000000002,1.34 -0.45,1.98 c-5.28,11.35 -10.55,22.72 -15.82,34.07 c-0.18000000000000002,0.38000000000000006 -0.26,0.7600000000000001 -0.26,1.19 c0.010000000000000002,12.51 0,25.03 0.010000000000000002,37.54 c0,0.5900000000000001 -0.12000000000000001,1.12 -0.37000000000000005,1.6500000000000001 c-0.8700000000000001,1.83 -1.71,3.67 -2.56,5.51 c-4.06,8.76 -8.12,17.51 -12.18,26.27 c-0.08000000000000002,0.18000000000000002 -0.24000000000000002,0.36000000000000004 -0.18000000000000002,0.6200000000000001 c1.33,0 2.6500000000000004,0 3.9699999999999998,0 c0.18000000000000002,0 0.30000000000000004,-0.06000000000000001 0.36000000000000004,-0.23 c0.05000000000000001,-0.13 0.12000000000000001,-0.25 0.18000000000000002,-0.37000000000000005 c5.07,-10.93 10.14,-21.86 15.22,-32.79 c0.2,-0.44000000000000006 0.30000000000000004,-0.8700000000000001 0.30000000000000004,-1.36 c-0.010000000000000002,-12.47 0,-24.95 -0.010000000000000002,-37.42 c0,-0.6100000000000001 0.12000000000000001,-1.1600000000000001 0.38000000000000006,-1.7000000000000002 c5.28,-11.37 10.56,-22.75 15.84,-34.13 c0.2,-0.44000000000000006 0.30000000000000004,-0.8700000000000001 0.30000000000000004,-1.36 c-0.010000000000000002,-12.45 0,-24.91 -0.010000000000000002,-37.36 c0,-0.6500000000000001 0.13,-1.23 0.39000000000000007,-1.82 c4.76,-10.55 9.51,-21.11 14.26,-31.67 C56.420001678466804,4.370000610351564 56.56000167846679,4.190000610351561 56.5300016784668,3.870000610351564 zM103.94000167846679,184.78000061035155 c1.36,0 2.6900000000000004,0 4.03,0 c0.15000000000000002,0 0.26,-0.05000000000000001 0.32000000000000006,-0.2 c0.06000000000000001,-0.15000000000000002 0.13,-0.28 0.2,-0.43000000000000005 c5.07,-10.93 10.14,-21.86 15.22,-32.79 c0.2,-0.42000000000000004 0.29000000000000004,-0.8400000000000001 0.29000000000000004,-1.3 c-0.010000000000000002,-12.47 0,-24.95 -0.010000000000000002,-37.42 c0,-0.6300000000000001 0.13,-1.19 0.39000000000000007,-1.7600000000000002 c5.29,-11.37 10.56,-22.75 15.84,-34.13 c0.19000000000000003,-0.42000000000000004 0.29000000000000004,-0.8400000000000001 0.29000000000000004,-1.3 c-0.010000000000000002,-12.45 0,-24.91 -0.010000000000000002,-37.36 c0,-0.6400000000000001 0.12000000000000001,-1.23 0.39000000000000007,-1.82 c4.77,-10.57 9.53,-21.15 14.28,-31.73 c0.09000000000000002,-0.19000000000000003 0.23,-0.37000000000000005 0.19000000000000003,-0.6500000000000001 c-1.33,0 -2.67,0 -4,0 c-0.18000000000000002,0 -0.29000000000000004,0.09000000000000002 -0.36000000000000004,0.25 c-0.04000000000000001,0.11000000000000001 -0.1,0.22000000000000003 -0.14,0.32000000000000006 c-4.95,10.99 -9.89,21.98 -14.85,32.96 c-0.17,0.37000000000000005 -0.24000000000000002,0.7300000000000001 -0.24000000000000002,1.1400000000000001 c0.010000000000000002,12.49 0,24.99 0.010000000000000002,37.48 c0,0.6500000000000001 -0.13,1.23 -0.4,1.82 c-5.29,11.37 -10.56,22.75 -15.85,34.13 c-0.19000000000000003,0.4 -0.28,0.8 -0.28,1.24 c0.010000000000000002,12.49 0,24.99 0.010000000000000002,37.48 c0,0.6100000000000001 -0.12000000000000001,1.15 -0.38000000000000006,1.7000000000000002 c-4.9,10.55 -9.8,21.11 -14.69,31.67 C104.10000167846681,184.28000061035155 103.97000167846679,184.47000061035158 103.94000167846679,184.78000061035155 zM90.8600016784668,3.880000610351562 c-1.35,0 -2.7,0 -4.05,0 c-0.13,0 -0.22000000000000003,0.07 -0.27,0.19000000000000003 c-0.07,0.16000000000000003 -0.15000000000000002,0.32000000000000006 -0.22000000000000003,0.48000000000000004 c-4.91,10.92 -9.83,21.83 -14.75,32.75 c-0.19000000000000003,0.42000000000000004 -0.28,0.8400000000000001 -0.28,1.3 c0.010000000000000002,12.47 0,24.95 0.010000000000000002,37.42 c0,0.6300000000000001 -0.12000000000000001,1.19 -0.38000000000000006,1.7600000000000002 c-5.29,11.39 -10.58,22.79 -15.870000000000001,34.18 c-0.19000000000000003,0.4 -0.27,0.8 -0.27,1.25 c0.010000000000000002,12.45 0,24.91 0.010000000000000002,37.36 c0,0.6900000000000002 -0.14,1.3 -0.43000000000000005,1.9300000000000002 c-4.890000000000001,10.52 -9.77,21.04 -14.65,31.56 c-0.1,0.21000000000000002 -0.24000000000000002,0.41000000000000003 -0.25,0.7100000000000001 c1.35,0 2.68,0 4.01,0 c0.19000000000000003,0 0.29000000000000004,-0.09000000000000002 0.35000000000000003,-0.25 c0.05000000000000001,-0.13 0.12000000000000001,-0.25 0.18000000000000002,-0.37000000000000005 c5.08,-10.95 10.16,-21.9 15.24,-32.85 c0.19000000000000003,-0.4 0.27,-0.8 0.27,-1.25 c-0.010000000000000002,-12.47 0,-24.95 -0.010000000000000002,-37.42 c0,-0.6300000000000001 0.12000000000000001,-1.19 0.38000000000000006,-1.7600000000000002 c5.29,-11.39 10.58,-22.79 15.870000000000001,-34.18 c0.19000000000000003,-0.4 0.27,-0.8 0.27,-1.25 c-0.010000000000000002,-12.49 0,-24.99 -0.010000000000000002,-37.48 c0,-0.52 0.06000000000000001,-1.01 0.28,-1.49 c1.4300000000000002,-3.15 2.84,-6.3100000000000005 4.26,-9.47 c3.38,-7.51 6.77,-15.02 10.15,-22.53 C90.7800016784668,4.310000610351562 90.9100016784668,4.150000610351562 90.8600016784668,3.880000610351562 zM222.4900016784668,184.78000061035155 c-0.13,-0.97 -36.92,-168.55 -38.71,-176.34 c-0.030000000000000006,-0.11000000000000001 -0.06000000000000001,-0.23 -0.1,-0.3400000000000001 c-0.010000000000000002,-0.020000000000000004 -0.020000000000000004,-0.04000000000000001 -0.030000000000000006,-0.05000000000000001 c-0.07,-0.030000000000000006 -0.010000000000000002,0.08000000000000002 -0.06000000000000001,-0.010000000000000002 c-0.06000000000000001,0.12000000000000001 -0.11000000000000001,0.22000000000000003 -0.16000000000000003,0.32000000000000006 c-0.81,1.79 -1.59,3.6 -2.44,5.37 c-0.3400000000000001,0.7000000000000001 -0.38000000000000006,1.34 -0.21000000000000002,2.09 c1.7400000000000002,7.8100000000000005 3.45,15.620000000000001 5.16,23.43 c1.71,7.79 3.43,15.59 5.14,23.38 c1.6700000000000002,7.62 3.34,15.24 5.02,22.86 c1.75,7.97 3.5,15.93 5.25,23.9 c1.71,7.79 3.42,15.59 5.13,23.38 c1.71,7.79 3.43,15.59 5.14,23.38 c1.59,7.26 3.18,14.51 4.78,21.77 c0.47000000000000003,2.13 0.9400000000000001,4.26 1.4100000000000001,6.39 c0.1,0.46 0.11000000000000001,0.47000000000000003 0.5700000000000001,0.47000000000000003 c0.5900000000000001,0 1.18,0 1.77,0 C220.91000167846678,184.78000061035155 221.6700016784668,184.78000061035155 222.4900016784668,184.78000061035155 zM177.8900016784668,20.83000061035156 c-0.15000000000000002,0.09000000000000002 -0.18000000000000002,0.23 -0.23,0.35000000000000003 c-0.98,2.17 -1.9500000000000002,4.34 -2.94,6.5 c-0.14,0.31000000000000005 -0.13,0.5900000000000001 -0.06000000000000001,0.91 c0.42000000000000004,1.86 0.8300000000000001,3.72 1.24,5.58 c1.79,8.06 3.5700000000000003,16.11 5.36,24.17 c1.87,8.44 3.75,16.88 5.62,25.32 c1.71,7.69 3.41,15.39 5.12,23.08 c1.6700000000000002,7.54 3.35,15.08 5.02,22.62 c1.79,8.08 3.58,16.15 5.37,24.23 c1.71,7.71 3.42,15.42 5.14,23.13 c0.56,2.51 1.11,5.03 1.6700000000000002,7.54 c0.11000000000000001,0.51 0.11000000000000001,0.51 0.6600000000000001,0.51 c1.04,0 2.09,0 3.13,0 c0.22000000000000003,0 0.43000000000000005,-0.010000000000000002 0.6500000000000001,0 c0.25,0.010000000000000002 0.31000000000000005,-0.12000000000000001 0.25,-0.33000000000000007 c-0.030000000000000006,-0.09000000000000002 -0.05000000000000001,-0.19000000000000003 -0.07,-0.29000000000000004 c-1.6800000000000002,-7.640000000000001 -3.35,-15.28 -5.03,-22.92 c-1.75,-7.96 -3.5,-15.93 -5.25,-23.89 c-1.9500000000000002,-8.870000000000001 -3.89,-17.73 -5.84,-26.6 c-1.9100000000000001,-8.67 -3.8200000000000003,-17.35 -5.72,-26.02 c-2.3,-10.48 -4.6,-20.96 -6.9,-31.44 c-2.2800000000000002,-10.36 -4.55,-20.73 -6.83,-31.09 C178.1400016784668,21.740000610351565 178.1000016784668,21.27000061035156 177.8900016784668,20.83000061035156 zM171.9500016784668,34.18000061035156 c-0.05000000000000001,0 -0.1,0 -0.15000000000000002,0 c-0.54,1.2 -1.08,2.4 -1.62,3.6 c-0.09000000000000002,0.19000000000000003 -0.07,0.39000000000000007 -0.07,0.5800000000000001 c0,2.16 0,4.33 0,6.49 c0,0.28 0.030000000000000006,0.55 0.09000000000000002,0.8200000000000001 c1.45,6.6 2.9,13.2 4.35,19.81 c1.71,7.79 3.42,15.59 5.13,23.38 c1.6700000000000002,7.62 3.35,15.24 5.02,22.86 c1.6300000000000001,7.43 3.26,14.86 4.890000000000001,22.28 c1.6300000000000001,7.45 3.27,14.89 4.9,22.34 c1.48,6.74 2.96,13.47 4.43,20.21 c0.56,2.55 1.12,5.11 1.6800000000000002,7.66 c0.12000000000000001,0.5700000000000001 0.13,0.5700000000000001 0.7300000000000001,0.5700000000000001 c1.12,0 2.24,0 3.36,0 c0.19000000000000003,0 0.39000000000000007,0.04000000000000001 0.6400000000000001,-0.1 C194.2100016784668,134.53000061035155 183.0800016784668,84.35000061035156 171.9500016784668,34.18000061035156 zM170.2300016784668,63.83000061035156 c-0.04000000000000001,0 -0.08000000000000002,0.010000000000000002 -0.12000000000000001,0.010000000000000002 c0,0.22000000000000003 0,0.43000000000000005 0,0.6500000000000001 c0,3.4 -0.05000000000000001,6.8100000000000005 0.020000000000000004,10.21 c0.030000000000000006,1.54 -0.17,2.9699999999999998 -0.97,4.29 c-0.19000000000000003,0.32000000000000006 -0.2,0.6500000000000001 -0.12000000000000001,1.01 c1.56,7.02 3.1,14.05 4.65,21.07 c1.7600000000000002,7.96 3.51,15.93 5.27,23.89 c1.6800000000000002,7.6 3.35,15.2 5.03,22.8 c1.59,7.24 3.18,14.47 4.78,21.71 c1.09,4.93 2.18,9.86 3.27,14.79 c0.11000000000000001,0.51 0.12000000000000001,0.51 0.6500000000000001,0.51 c1.18,0 2.36,0 3.54,0 c0.17,0 0.35000000000000003,0.06000000000000001 0.52,-0.11000000000000001 C187.9200016784668,144.40000061035155 179.0800016784668,104.11000061035156 170.2300016784668,63.83000061035156 zM81.7100016784668,34.130000610351566 c-0.04000000000000001,0 -0.08000000000000002,0 -0.12000000000000001,0.010000000000000002 c-0.54,1.2 -1.08,2.4 -1.62,3.6 c-0.09000000000000002,0.21000000000000002 -0.08000000000000002,0.42000000000000004 -0.08000000000000002,0.6400000000000001 c0,2.14 0,4.29 0,6.43 c0,0.30000000000000004 0.020000000000000004,0.5900000000000001 0.08000000000000002,0.8800000000000001 c1.6300000000000001,7.33 3.26,14.65 4.88,21.98 c3.23,14.56 6.46,29.12 9.68,43.68 c3.17,14.29 6.33,28.59 9.5,42.88 c0.11000000000000001,0.5 0.17,1.02 0.39000000000000007,1.55 c0.08000000000000002,-0.12000000000000001 0.13,-0.18000000000000002 0.16000000000000003,-0.25 c0.7100000000000001,-1.51 1.4100000000000001,-3.03 2.11,-4.54 c0.1,-0.22000000000000003 0.13,-0.45 0.13,-0.6900000000000002 c0,-1.22 -0.010000000000000002,-2.44 0,-3.66 c0,-0.38000000000000006 -0.04000000000000001,-0.7400000000000001 -0.12000000000000001,-1.11 c-1.86,-8.3 -3.73,-16.6 -5.59,-24.91 c-1.99,-8.86 -3.98,-17.71 -5.96,-26.57 c-2.03,-9.03 -4.05,-18.06 -6.07,-27.09 c-2.31,-10.3 -4.62,-20.59 -6.93,-30.89 C82.0100016784668,35.43000061035156 81.8600016784668,34.780000610351564 81.7100016784668,34.130000610351566 zM106.7100016784668,127.88000061035157 c0.04000000000000001,0 0.08000000000000002,0 0.12000000000000001,0 c0,-0.22000000000000003 0,-0.43000000000000005 0,-0.6500000000000001 c0,-4.74 0.010000000000000002,-9.48 -0.010000000000000002,-14.22 c0,-0.8900000000000001 0.09000000000000002,-1.7200000000000002 0.55,-2.49 c0.17,-0.29000000000000004 0.17,-0.5700000000000001 0.1,-0.9 c-2.1,-9.4 -4.19,-18.8 -6.28,-28.2 c-2.3,-10.36 -4.6,-20.72 -6.9,-31.08 c-2.04,-9.17 -4.08,-18.34 -6.12,-27.51 c-0.15000000000000002,-0.6800000000000002 -0.31000000000000005,-1.37 -0.47000000000000003,-2.07 c-0.21000000000000002,0.13 -0.24000000000000002,0.32000000000000006 -0.31000000000000005,0.47000000000000003 c-0.9600000000000001,2.11 -1.9,4.23 -2.8600000000000003,6.34 c-0.16000000000000003,0.3400000000000001 -0.18000000000000002,0.6600000000000001 -0.1,1.02 c1.6300000000000001,7.25 3.26,14.49 4.890000000000001,21.74 c1.79,7.96 3.5700000000000003,15.91 5.35,23.87 c1.9100000000000001,8.51 3.81,17.03 5.72,25.54 c1.87,8.36 3.75,16.72 5.63,25.08 C106.25000167846679,125.85000061035157 106.4800016784668,126.87000061035155 106.7100016784668,127.88000061035157 zM166.2900016784668,85.38000061035156 c-0.11000000000000001,0.11000000000000001 -0.15000000000000002,0.13 -0.16000000000000003,0.17 c-0.92,1.98 -1.84,3.96 -2.7600000000000002,5.93 c-0.1,0.21000000000000002 -0.09000000000000002,0.4 -0.04000000000000001,0.6300000000000001 c0.8300000000000001,3.7600000000000002 1.6400000000000001,7.53 2.46,11.29 c1.79,8.2 3.58,16.39 5.37,24.59 c1.84,8.41 3.67,16.82 5.51,25.22 c1.6300000000000001,7.45 3.25,14.9 4.88,22.35 c0.6400000000000001,2.92 1.27,5.84 1.9100000000000001,8.75 c0.1,0.46 0.1,0.46 0.5800000000000001,0.46 c0.9600000000000001,0 1.9300000000000002,0 2.89,0 c0.31000000000000005,0 0.6300000000000001,-0.010000000000000002 0.9400000000000001,0 c0.24000000000000002,0 0.32000000000000006,-0.1 0.25,-0.33000000000000007 c-0.030000000000000006,-0.11000000000000001 -0.05000000000000001,-0.23 -0.08000000000000002,-0.35000000000000003 c-1.55,-7.04 -3.1,-14.08 -4.66,-21.13 c-1.71,-7.75 -3.42,-15.5 -5.13,-23.26 c-1.87,-8.48 -3.73,-16.96 -5.6,-25.45 c-1.83,-8.31 -3.67,-16.62 -5.5,-24.93 C166.88000167846678,88.05000061035156 166.6000016784668,86.75000061035156 166.2900016784668,85.38000061035156 zM79.98000167846679,63.58000061035156 c-0.12000000000000001,0.35000000000000003 -0.09000000000000002,0.5900000000000001 -0.09000000000000002,0.81 c0,3.48 0.010000000000000002,6.96 0,10.45 c-0.010000000000000002,2.56 0.16000000000000003,1.7200000000000002 -0.8600000000000001,3.95 c-0.14,0.30000000000000004 -0.17,0.5700000000000001 -0.09000000000000002,0.9 c0.92,4.08 1.82,8.17 2.73,12.26 c2.66,11.99 5.3100000000000005,23.98 7.97,35.97 c2.87,12.93 5.74,25.86 8.61,38.79 c0.11000000000000001,0.5 0.18000000000000002,1.02 0.37000000000000005,1.51 c0.13,-0.08000000000000002 0.17,-0.17 0.21000000000000002,-0.26 c0.92,-1.98 1.83,-3.96 2.7600000000000002,-5.93 c0.14,-0.30000000000000004 0.1,-0.5700000000000001 0.04000000000000001,-0.8500000000000001 c-1.7000000000000002,-7.67 -3.4,-15.35 -5.1,-23.02 c-1.8,-8.1 -3.59,-16.19 -5.38,-24.29 c-1.75,-7.88 -3.49,-15.77 -5.24,-23.65 c-1.7600000000000002,-7.92 -3.51,-15.85 -5.27,-23.77 C80.4200016784668,65.53000061035156 80.2200016784668,64.61000061035156 79.98000167846679,63.58000061035156 zM76.20000167846679,85.20000061035157 c-0.04000000000000001,0 -0.09000000000000002,0 -0.13,0 c-0.09000000000000002,0.19000000000000003 -0.19000000000000003,0.39000000000000007 -0.28,0.5800000000000001 c-0.8400000000000001,1.82 -1.6700000000000002,3.64 -2.54,5.45 c-0.22000000000000003,0.45 -0.27,0.8600000000000001 -0.16000000000000003,1.35 c1.9,8.49 3.79,16.99 5.68,25.49 c2.42,10.89 4.85,21.79 7.27,32.68 c2.18,9.82 4.36,19.64 6.55,29.46 c0.04000000000000001,0.2 0.05000000000000001,0.42000000000000004 0.18000000000000002,0.6100000000000001 c0.22000000000000003,-0.16000000000000003 0.26,-0.38000000000000006 0.35000000000000003,-0.5700000000000001 c0.7100000000000001,-1.51 1.4100000000000001,-3.03 2.11,-4.54 c0.24000000000000002,-0.52 0.6000000000000001,-1.03 0.6500000000000001,-1.57 c0.06000000000000001,-0.54 -0.19000000000000003,-1.11 -0.31000000000000005,-1.6700000000000002 c-1.87,-8.42 -3.74,-16.84 -5.61,-25.26 c-2.06,-9.3 -4.12,-18.61 -6.19,-27.91 c-2.35,-10.61 -4.71,-21.21 -7.06,-31.82 C76.5500016784668,86.72000061035156 76.37000167846679,85.96000061035156 76.20000167846679,85.20000061035157 zM93.4700016784668,8.050000610351564 c-0.16000000000000003,0.020000000000000004 -0.18000000000000002,0.1 -0.21000000000000002,0.17 c-0.9400000000000001,2.08 -1.87,4.16 -2.81,6.24 c-0.1,0.21000000000000002 -0.1,0.4 -0.04000000000000001,0.6200000000000001 c0.28,1.21 0.54,2.42 0.81,3.63 c1.82,8.21 3.6500000000000004,16.42 5.48,24.63 c1.75,7.88 3.5,15.77 5.26,23.65 c1.6300000000000001,7.35 3.27,14.69 4.9,22.04 c1.09,4.91 2.19,9.82 3.2800000000000002,14.73 c0.030000000000000006,0.12000000000000001 -0.020000000000000004,0.29000000000000004 0.19000000000000003,0.3400000000000001 c0.05000000000000001,-0.08000000000000002 0.1,-0.16000000000000003 0.14,-0.24000000000000002 c0.8900000000000001,-1.9300000000000002 1.78,-3.85 2.6900000000000004,-5.78 c0.13,-0.28 0.11000000000000001,-0.53 0.05000000000000001,-0.8 c-0.6000000000000001,-2.71 -1.2,-5.41 -1.8,-8.12 c-1.83,-8.29 -3.67,-16.58 -5.5,-24.87 c-1.71,-7.75 -3.42,-15.51 -5.14,-23.26 c-1.79,-8.1 -3.58,-16.2 -5.37,-24.29 C94.7500016784668,13.850000610351564 94.1100016784668,10.960000610351564 93.4700016784668,8.050000610351564 z" id="svg_2"/>
	</g>
</g></g></svg>