<svg xmlns="http://www.w3.org/2000/svg" xmlns:xlink="http://www.w3.org/1999/xlink" version="1.1" fill="#FFF" xml:space="preserve" width="227" height="21"><rect id="backgroundrect" width="100%" height="100%" x="0" y="0" fill="none" stroke="none"/>

<g class="currentLayer" style=""><title>Layer 1</title><g id="svg_1" class="">
	<path d="M0.010001678466796449,0.5799993896484352 h12.78 l3.06,10.28 h0.06000000000000001 l2.98,-10.28 h12.7 v19.89 h-9.44 v-10.61 h-0.06000000000000001 l-3.48,10.61 H13.040001678466794 l-3.54,-10.61 h-0.06000000000000001 v10.61 h-9.44 V0.5799993896484352 z" id="svg_2"/>
	<path d="M34.8400016784668,9.96999938964845 c0,-7.8 6.49,-9.97 13.73,-9.97 s13.73,2.17 13.73,9.97 c0,4.57 -1.03,11.09 -13.73,11.09 C35.87000167846679,21.059999389648425 34.8400016784668,14.539999389648443 34.8400016784668,9.96999938964845 zM51.9700016784668,10.779999389648424 c0,-2.5300000000000002 -0.8900000000000001,-4.2 -3.4,-4.2 c-2.51,0 -3.4,1.6700000000000002 -3.4,4.2 c0,2.54 0.8900000000000001,4.21 3.4,4.21 C51.0800016784668,14.989999389648432 51.9700016784668,13.309999389648425 51.9700016784668,10.779999389648424 z" id="svg_3"/>
	<path d="M65.5500016784668,0.5799993896484352 h10.08 l5.76,8.3 h0.06000000000000001 v-8.3 h9.44 v19.89 h-8.86 l-6.99,-9.02 h-0.06000000000000001 v9.02 h-9.44 V0.5799993896484352 z" id="svg_4"/>
	<path d="M99.7700016784668,8.409999389648448 h-5.91 v-7.83 h21.86 v7.83 h-5.9 v12.06 h-10.05 V8.409999389648448 z" id="svg_5"/>
	<path d="M140.7000016784668,8.799999389648434 c-2.15,-0.6400000000000001 -5.18,-0.7500000000000001 -7.16,-0.7500000000000001 c-3.45,0 -5.32,0.42000000000000004 -5.32,3.31 c0,2.62 2.23,2.87 4.34,2.87 c2.6500000000000004,0 4.76,-0.28 8.05,-0.92 v6.66 c-2.45,0.5900000000000001 -6.38,1.09 -10.03,1.09 c-7.77,0 -12.95,-2.73 -12.95,-10.86 c0,-7.63 5.82,-10.19 12.95,-10.19 c3.6500000000000004,0 6.85,0.42000000000000004 10.11,0.98 V8.799999389648434 z" id="svg_6"/>
	<path d="M148.7300016784668,0.5799993896484352 h15.93 l6.41,19.89 h-10.39 l-0.6400000000000001,-2.54 h-6.66 l-0.7500000000000001,2.54 h-10.25 L148.7300016784668,0.5799993896484352 zM156.7000016784668,5.209999389648431 h-0.08000000000000002 l-2.09,7.27 h4.32 L156.7000016784668,5.209999389648431 z" id="svg_7"/>
	<path d="M172.9800016784668,0.5799993896484352 h10.05 v13.06 h8.66 v6.82 h-18.72 V0.5799993896484352 z" id="svg_8"/>
	<path d="M195.19000167846679,0.5799993896484352 h12.78 l3.06,10.28 h0.06000000000000001 l2.98,-10.28 h12.7 v19.89 h-9.44 v-10.61 h-0.06000000000000001 l-3.48,10.61 h-5.57 l-3.54,-10.61 h-0.06000000000000001 v10.61 h-9.44 V0.5799993896484352 z" id="svg_9"/>
</g></g></svg>